<svg width="148" height="28" viewBox="0 0 148 28" fill="none" xmlns="http://www.w3.org/2000/svg">
<path d="M46.8745 14.7819V10.5957C45.5916 9.95165 44.1607 9.481 42.5571 9.62962C37.2775 9.62962 33.7496 13.1718 33.7496 18.2993C33.7496 23.4269 37.2775 26.9691 42.2364 26.9691C43.84 26.9691 45.4436 26.6471 46.8745 25.8544V21.6682C45.9123 22.9562 44.3087 23.7489 42.7051 23.7489C39.4979 23.7489 37.5736 21.6682 37.5736 18.2746C37.5736 15.0544 39.4979 12.9737 42.5324 12.9737C44.1607 12.8746 45.7643 13.5186 46.8745 14.7819ZM32.6394 26.5232L23.0425 0.662655L17.4422 14.8067C16.9735 15.9214 16.6528 17.2094 16.3321 18.3489C16.184 17.2342 15.6906 16.0948 15.2219 14.9801L9.6216 0.687424L0 26.5232H3.99667L8.63477 13.8406C9.10352 12.5526 9.42424 11.2645 9.74496 9.97642C10.2137 11.4131 10.5344 12.7012 11.0278 13.9893L16.3074 27.4893L21.2662 14.1627C21.4142 13.692 21.9076 12.4039 22.5491 9.97642C23.0178 11.2645 23.3386 12.5526 23.832 13.9893L28.4701 26.5232H32.6394ZM125.92 26.3498H129.596V8.98559C130.237 9.95165 131.027 10.9177 131.989 11.7104L148 27.1425V1.45532H144.324V18.6461C143.535 17.5315 142.572 16.5654 141.61 15.5993L126.092 0.489258L125.92 26.3498ZM98.8805 26.3498H102.556V8.98559C103.198 9.95165 103.987 10.9177 104.949 11.7104L120.961 27.1425V1.45532H117.285V18.6461C116.495 17.5315 115.533 16.5654 114.571 15.5993L98.8805 0.489258V26.3498ZM71.0272 7.57366L71.1752 3.56082C68.7821 1.8021 66.0437 0.984671 63.1819 0.984671C59.5059 0.984671 56.2987 2.27275 53.733 4.6755C51.3399 7.07825 49.8843 10.4718 49.8843 13.9893C49.8843 17.5067 51.1672 20.9003 53.5603 23.303C55.9533 25.7058 59.3332 26.9938 63.0092 26.9938C66.0437 26.9938 68.4614 26.2012 70.6818 24.5911V20.0828C68.2887 22.1636 65.5503 23.303 62.6885 23.303C57.7296 23.303 54.0537 19.4388 54.0537 13.9893C54.0537 8.53972 57.7296 4.6755 63.1819 4.6755C66.241 4.6755 68.6341 5.64155 71.0272 7.57366ZM84.6454 0.489258L72.6554 26.3498H76.8248L79.7113 19.9342H89.4809L92.1947 26.3498H96.5121L84.6454 0.489258ZM81.2902 16.5654L83.856 10.9425C84.1767 9.97642 84.4974 9.01036 84.8181 8.2177C85.1389 9.18376 85.4596 10.1498 85.7803 10.9425L88.3461 16.5654H81.2902Z" fill="black"/>
</svg>
