<svg width="159" height="30" viewBox="0 0 159 30" fill="none" xmlns="http://www.w3.org/2000/svg">
<path d="M0 0.917969H8.64647L10.5886 18.4536H10.626L12.7736 0.917969H21.0279L21.0652 29.173H15.444V10.1246L13.2965 29.173H7.93679L5.78918 10.1246V29.173H0V0.917969Z" fill="black"/>
<path d="M33.2601 27.3985C31.7848 28.7804 29.5625 29.4526 27.8631 29.4526C22.7462 29.4526 21.6818 24.7653 21.6818 21.6839C21.6818 17.949 23.3064 15.2971 25.6408 13.5977C24.483 11.805 23.5306 9.75073 23.5306 7.41639C23.5306 3.17721 26.1076 0.525391 29.4505 0.525391C33.1481 0.525391 35.9493 2.35552 35.9493 7.11759C35.9493 10.6845 34.2499 12.4773 32.345 14.4941L34.3619 18.3038C34.7167 17.3514 35.0716 16.3617 35.0716 15.2411H40.0764C39.9643 18.4158 38.8439 21.8706 37.2939 23.6074L40.3565 29.1538H34.2125L33.2601 27.3985ZM28.4046 18.3038C27.9751 18.6212 26.892 19.6857 26.892 21.2731C26.892 22.6177 27.695 23.7008 28.7221 23.7008C29.6372 23.7008 30.4776 23.2713 30.9071 22.8231L28.4046 18.3038ZM28.2926 6.59469C28.2926 7.26699 28.442 7.90193 28.7781 8.49953L29.6185 10.0869C30.0107 9.7694 31.2058 8.21941 31.2058 6.76277C31.2058 5.53023 30.5336 5.17541 29.7305 5.17541C28.7595 5.17541 28.2926 5.67963 28.2926 6.59469Z" fill="black"/>
<path d="M49.1149 8.89159C49.1149 7.65906 49.1149 5.67953 47.8823 5.67953C46.3697 5.67953 46.3324 6.83737 46.3324 14.7741C46.3324 22.9164 46.4444 24.0928 47.8823 24.0928C48.8348 24.0928 49.2269 22.8604 49.2269 19.3681V17.2393H54.9041V18.9759C54.9041 25.5309 52.7565 29.4152 47.677 29.4152C40.1323 29.4152 40.2631 23.6633 40.2631 14.7741C40.2631 6.16507 40.2257 0.693359 47.7143 0.693359C53.8956 0.693359 54.7733 4.78314 54.7733 9.09701V11.1512H49.1149V8.89159Z" fill="black"/>
<path d="M67.9757 7.82725C67.9757 6.66941 67.6209 5.84772 66.6311 5.84772C65.716 5.84772 65.1558 6.55736 65.2865 7.67785C65.716 13.5044 74.1384 13.1495 74.1384 21.1237C74.0264 27.5479 71.5612 29.4153 66.2015 29.4153C61.7197 29.4153 59.6094 27.2304 59.6094 21.1611V20.414L65.0811 20.4514V21.7213C65.0811 23.1032 65.4733 24.1863 66.5564 24.1863C67.6396 24.1863 68.3118 22.9165 68.1064 21.7586C67.7889 19.7045 66.351 18.8267 65.4919 18.1544C62.4293 16.0442 59.628 12.8695 59.628 8.66761C59.628 4.61519 60.5431 3.79349 61.8877 2.43023C62.8401 1.44047 64.3154 0.674805 66.5751 0.674805C72.439 0.674805 73.3914 4.31639 73.3914 8.92906H67.9757V7.82725Z" fill="black"/>
<path d="M83.644 24.4482H79.7223L79.0873 29.173H72.9807L78.3404 0.917969H85.2127L90.4043 29.173H84.335L83.644 24.4482ZM81.7392 6.91258H81.7018L80.3572 18.3789H83.0091L81.7392 6.91258Z" fill="black"/>
<path d="M100.508 24.4482H96.586L95.9514 29.173H89.8258L95.1852 0.917969H102.058L107.25 29.173H101.18L100.508 24.4482ZM98.603 6.91258H98.5653L97.2215 18.3789H99.8732L98.603 6.91258Z" fill="black"/>
<path d="M104.747 0.917969H118.604V7.43547H114.588V29.173H108.761V7.43547H104.747V0.917969Z" fill="black"/>
<path d="M127.809 8.89159C127.809 7.65906 127.809 5.67953 126.576 5.67953C125.064 5.67953 125.026 6.83737 125.026 14.7741C125.026 22.9164 125.139 24.0928 126.576 24.0928C127.529 24.0928 127.921 22.8604 127.921 19.3681V17.2393H133.599V18.9759C133.599 25.5309 131.451 29.4152 126.371 29.4152C118.826 29.4152 118.957 23.6633 118.957 14.7741C118.957 6.16507 118.92 0.693359 126.409 0.693359C132.59 0.693359 133.467 4.78314 133.467 9.09701V11.1512H127.79V8.89159H127.809Z" fill="black"/>
<path d="M143.721 0.917969H149.584V29.173H143.721V17.5012H140.901V29.173H135.074V0.917969H140.901V10.965H143.721V0.917969Z" fill="black"/>
<path d="M151.565 0.917969H158.119V29.173H151.565V0.917969Z" fill="black"/>
</svg>
