<svg width="115" height="35" viewBox="0 0 115 35" fill="none" xmlns="http://www.w3.org/2000/svg">
<path d="M3.38579 0.989258H0.119141V34.6804H3.38579V0.989258Z" fill="#222121"/>
<path d="M14.2578 0.989258H17.5161V34.6804H14.2578V0.989258Z" fill="#222121"/>
<path d="M31.6633 0.989258H28.3966V34.6804H31.6633V0.989258Z" fill="#222121"/>
<path d="M83.3258 4.85617V0.989258H114.87V4.85617H83.3258Z" fill="#222121"/>
<path d="M86.8104 34.6806H83.3258V15.8975H114.87V19.6307H86.8104V34.6806Z" fill="#222121"/>
<path fill-rule="evenodd" clip-rule="evenodd" d="M51.0791 2.30665C53.1418 1.45117 55.3533 1.00917 57.587 1.00586C59.8217 1.00917 62.0342 1.45142 64.0974 2.30744C66.1605 3.16346 68.0343 4.41643 69.612 5.99478C71.1892 7.57308 72.4395 9.44589 73.2909 11.5061C74.1423 13.5663 74.5783 15.7736 74.5739 18.0019C74.5768 20.2294 74.1403 22.4358 73.2884 24.4951C72.4365 26.5543 71.1862 28.4261 69.609 30.0038C68.0314 31.5809 66.1581 32.8333 64.0954 33.6886C62.0327 34.5444 59.8212 34.9864 57.587 34.9894C55.3523 34.9864 53.1403 34.5439 51.0771 33.6881C49.0137 32.8318 47.1399 31.5789 45.5624 30.0008C43.985 28.4221 42.7348 26.5495 41.8834 24.4893C41.0321 22.4291 40.5961 20.2218 40.6005 17.9935C40.5972 15.766 41.034 13.5596 41.8859 11.5003C42.7377 9.44105 43.988 7.56927 45.5654 5.99181C47.1427 4.41436 49.0162 3.16212 51.0791 2.30665ZM48.0322 27.5331C50.564 30.0656 54.0011 31.4919 57.587 31.4984C61.1734 31.4919 64.6101 30.0656 67.1419 27.5331C69.6738 25.0007 71.0937 21.5694 71.0893 17.9935C71.0937 14.4177 69.6738 10.9864 67.1419 8.45396C64.6101 5.92151 61.1734 4.49524 57.587 4.48857C54.0011 4.49524 50.564 5.92151 48.0322 8.45396C45.5003 10.9864 44.0805 14.4177 44.0849 17.9935C44.0805 21.5694 45.5003 25.0007 48.0322 27.5331Z" fill="#222121"/>
</svg>
