<svg width="179" height="33" viewBox="0 0 179 33" fill="none" xmlns="http://www.w3.org/2000/svg">
<g clip-path="url(#clip0_207_629)">
<path d="M10.0512 26.7266C15.3423 26.7266 19.1663 24.213 19.1663 19.3705C19.1663 14.308 14.7816 13.2175 11.4277 12.3753C9.2821 11.8506 7.56514 11.4371 7.56514 10.1749C7.56514 9.14001 8.63908 8.66875 9.75751 8.66875C11.0584 8.66875 12.1308 9.3262 12.1308 10.7284H18.4269C18.4269 6.21721 15.2941 3.48926 9.83168 3.48926C4.45904 3.48998 1.16678 5.9906 1.16678 10.3575C1.16678 15.4042 5.37129 16.3871 8.66429 17.1839C10.8329 17.6948 12.6063 18.0982 12.6063 19.4889C12.6063 20.6999 11.3506 21.3811 10.0364 21.3811C8.6057 21.3811 7.34932 20.6104 7.34932 19.0263H0.870117C0.870117 23.8616 4.47462 26.7266 10.0512 26.7266Z" fill="#121212"/>
<path d="M29.804 8.52148C24.2875 8.52148 20.2573 12.3774 20.2573 17.6197C20.2573 22.8447 24.3201 26.7453 29.804 26.7453C34.2139 26.7453 37.7702 24.3068 39.0066 20.4039H32.9828C32.6482 20.9228 32.1771 21.3452 31.6183 21.6273C31.0595 21.9094 30.4334 22.0409 29.8047 22.0082C28.9283 22.0561 28.0667 21.7734 27.3989 21.219C26.7312 20.6646 26.3088 19.881 26.2195 19.0313H39.2729C39.353 18.5151 39.3947 17.9938 39.3975 17.4718C39.3975 12.4554 35.4748 8.52293 29.8092 8.52293L29.804 8.52148ZM26.3226 15.7693C26.4875 14.9999 26.9282 14.3127 27.566 13.8305C28.2038 13.3484 28.9971 13.1026 29.804 13.1373C30.6291 13.0942 31.4435 13.3339 32.1057 13.8149C32.7678 14.2958 33.2356 14.9874 33.4278 15.7693H26.3226Z" fill="#121212"/>
<path d="M49.8223 26.7462C52.1037 26.8296 54.3343 26.0772 56.0731 24.6376C57.8119 23.1981 58.9325 21.1762 59.2133 18.9716H53.2651C53.0512 19.6967 52.5988 20.3335 51.9771 20.7843C51.3555 21.2351 50.599 21.475 49.8238 21.4671C47.7152 21.4671 46.1822 19.8571 46.1822 17.6293C46.1822 15.4014 47.696 13.8274 49.8238 13.8274C50.5705 13.8137 51.3027 14.0282 51.9175 14.4409C52.5322 14.8535 52.9984 15.4434 53.2503 16.1274H59.148C58.4865 11.5809 54.7818 8.5498 49.8416 8.5498C44.1671 8.5498 40.1176 12.3199 40.1176 17.6119C40.1176 22.904 44.1864 26.747 49.8231 26.747L49.8223 26.7462Z" fill="#121212"/>
<path d="M70.5349 21.0246C70.2625 21.0502 69.9877 21.0172 69.7299 20.9278C69.4721 20.8384 69.2377 20.6949 69.0433 20.5075C68.849 20.3201 68.6994 20.0933 68.6052 19.8433C68.5109 19.5933 68.4744 19.3262 68.4982 19.061V13.6188H72.7599V9.08157H68.344V4.08105H67.1002L59.223 12.2411V13.6181H62.4403V20.0713C62.4403 23.8724 64.8025 26.1839 68.6896 26.1839H72.8548V21.0246H70.5349Z" fill="#121212"/>
<path d="M83.5133 8.52148C77.7824 8.52148 73.658 12.3312 73.658 17.6334C73.658 22.9168 77.7824 26.7453 83.5133 26.7453C89.2241 26.7453 93.3686 22.9168 93.3686 17.6334C93.3678 12.3312 89.2256 8.52148 83.5133 8.52148ZM83.5133 21.4533C83.0002 21.4665 82.4899 21.3757 82.0148 21.1867C81.5397 20.9977 81.1102 20.7146 80.7536 20.3553C80.397 19.9961 80.1211 19.5685 79.9435 19.0999C79.7659 18.6314 79.6904 18.1319 79.7219 17.6334C79.703 17.1375 79.7871 16.643 79.9691 16.1794C80.1512 15.7158 80.4274 15.2927 80.7813 14.9354C81.1352 14.5781 81.5595 14.2938 82.0288 14.0997C82.4982 13.9055 83.0029 13.8055 83.5129 13.8055C84.0229 13.8055 84.5277 13.9055 84.997 14.0997C85.4664 14.2938 85.8907 14.5781 86.2446 14.9354C86.5985 15.2927 86.8747 15.7158 87.0567 16.1794C87.2387 16.643 87.3228 17.1375 87.3039 17.6334C87.3355 18.1319 87.2601 18.6313 87.0826 19.0999C86.9051 19.5685 86.6293 19.996 86.2728 20.3553C85.9162 20.7145 85.4868 20.9977 85.0117 21.1867C84.5367 21.3758 84.0264 21.4665 83.5133 21.4533Z" fill="#121212"/>
<path d="M105.046 9.00068C104.137 8.94227 103.225 9.09075 102.385 9.43434C101.545 9.77794 100.798 10.3072 100.204 10.9802L99.2596 9.08223H95.2042V26.186H101.258V17.4884C101.258 15.3067 102.157 14.3916 104.299 14.3916H106.65V9.00068H105.046Z" fill="#121212"/>
<path d="M108.32 2.90625H114.374V26.1855H108.32V2.90625Z" fill="#121212"/>
<path d="M117.183 9.08105H123.234V26.1849H117.18L117.183 9.08105Z" fill="#121212"/>
<path d="M120.206 7.76486C120.895 7.765 121.569 7.56631 122.142 7.19393C122.714 6.82154 123.161 6.2922 123.424 5.67288C123.688 5.05355 123.757 4.37207 123.622 3.71466C123.488 3.05725 123.156 2.45346 122.668 1.97967C122.181 1.50588 121.56 1.18339 120.885 1.053C120.209 0.922613 119.509 0.990185 118.872 1.24717C118.236 1.50415 117.692 1.939 117.31 2.49669C116.928 3.05438 116.724 3.70985 116.725 4.38018C116.725 5.27881 117.092 6.14063 117.745 6.77606C118.398 7.41148 119.284 7.76846 120.207 7.76846" fill="#121212"/>
<path d="M140.118 9.08188L139.35 10.5166C137.807 9.23052 135.839 8.52719 133.807 8.53485C132.643 8.51241 131.485 8.71998 130.406 9.14501C129.326 9.57004 128.346 10.2037 127.525 11.0077C126.703 11.8117 126.058 12.7693 125.628 13.8228C125.199 14.8762 124.992 16.0035 125.023 17.1365C125.008 18.6615 125.415 20.1624 126.2 21.4823C126.985 22.8022 128.12 23.8928 129.486 24.64C130.852 25.3873 132.4 25.7638 133.967 25.7302C135.534 25.6967 137.063 25.2543 138.394 24.4493V24.9603C138.394 26.994 136.762 28.249 134.734 28.249C133.264 28.249 131.763 27.6327 131.343 26.4895H125.501C126.31 30.5425 129.803 32.9897 134.79 32.9897C140.595 32.9897 144.209 29.6599 144.209 24.2855V9.08188H140.118ZM134.811 20.8828C134.307 20.8955 133.805 20.8065 133.337 20.6215C132.87 20.4364 132.446 20.1593 132.094 19.8075C131.742 19.4558 131.468 19.0369 131.29 18.5773C131.112 18.1176 131.033 17.6271 131.059 17.1365C131.049 16.6518 131.139 16.1701 131.323 15.7195C131.507 15.2689 131.781 14.8584 132.13 14.5122C132.478 14.166 132.895 13.891 133.354 13.7033C133.813 13.5155 134.307 13.4188 134.805 13.4188C135.303 13.4188 135.796 13.5155 136.256 13.7033C136.715 13.891 137.131 14.166 137.48 14.5122C137.829 14.8584 138.103 15.2689 138.287 15.7195C138.471 16.1701 138.56 16.6518 138.55 17.1365C138.576 17.6259 138.498 18.1153 138.321 18.5739C138.144 19.0326 137.871 19.4508 137.52 19.8024C137.169 20.154 136.748 20.4314 136.282 20.6173C135.816 20.8032 135.316 20.8936 134.812 20.8828H134.811Z" fill="#121212"/>
<path d="M157.829 8.57649C156.12 8.58403 154.464 9.15946 153.137 10.2075V2.90625H147.083V26.1855H153.137V17.0526C153.137 14.8573 154.279 13.5929 156.112 13.5929C157.692 13.5929 158.405 14.5982 158.405 16.5713V26.1855H164.457V15.8857C164.457 11.4531 161.861 8.57649 157.828 8.57649" fill="#121212"/>
<path d="M176.546 21.0246C176.274 21.0502 175.999 21.0172 175.742 20.9278C175.484 20.8384 175.249 20.6949 175.055 20.5075C174.861 20.3201 174.711 20.0933 174.617 19.8433C174.523 19.5933 174.486 19.3262 174.51 19.061V13.6188H178.772V9.08157H174.356V4.08105H173.113L165.238 12.2411V13.6181H168.455V20.0713C168.455 23.8724 170.817 26.1839 174.705 26.1839H178.87V21.0246H176.546Z" fill="#121212"/>
</g>
<defs>
<clipPath id="clip0_207_629">
<rect width="178" height="32" fill="white" transform="translate(0.870117 0.989258)"/>
</clipPath>
</defs>
</svg>
