<svg width="115" height="32" viewBox="0 0 115 32" fill="none" xmlns="http://www.w3.org/2000/svg">
<g clip-path="url(#clip0_207_644)">
<path d="M110.582 19.2324C112.95 19.2324 114.87 17.3034 114.87 14.9238C114.87 12.5443 112.95 10.6152 110.582 10.6152C108.214 10.6152 106.295 12.5443 106.295 14.9238C106.295 17.3034 108.214 19.2324 110.582 19.2324Z" fill="#181818"/>
<path d="M110.582 31.4893C112.95 31.4893 114.87 29.5603 114.87 27.1807C114.87 24.8011 112.95 22.8721 110.582 22.8721C108.214 22.8721 106.295 24.8011 106.295 27.1807C106.295 29.5603 108.214 31.4893 110.582 31.4893Z" fill="#181818"/>
<path d="M21.683 13.5526C20.9387 13.0791 20.1662 12.6516 19.37 12.2727C18.858 12.0354 18.3362 11.7827 17.8363 11.5392C17.3364 11.2956 16.8091 11.0429 16.3026 10.8025L15.6158 10.4962C14.4837 10.0801 13.4144 9.50875 12.4381 8.79829C12.0682 8.53654 11.7622 8.19374 11.5433 7.79579C11.3244 7.39783 11.1984 6.95511 11.1747 6.50105C11.1749 6.35875 11.1851 6.21666 11.2052 6.0758V6.04517C11.204 5.98819 11.2143 5.93156 11.2357 5.87875C11.3265 5.40002 11.4856 4.93698 11.7081 4.50398C11.9586 3.98212 12.3075 3.51403 12.7353 3.12563C13.6363 2.34181 14.7518 1.8498 15.9358 1.7141C15.9777 1.70609 16.0151 1.68272 16.0407 1.64856C16.0664 1.61439 16.0785 1.57186 16.0747 1.52922C16.0709 1.48658 16.0515 1.44689 16.0202 1.41785C15.9889 1.38881 15.948 1.37249 15.9054 1.37207C12.6482 1.43608 9.54557 2.77931 7.26196 5.11402C5.969 6.39562 5.11791 8.05923 4.83313 9.86165L4.8057 10.0036C4.71152 10.4841 4.65815 10.9719 4.64618 11.4616C4.67148 12.6957 5.0224 13.9009 5.66308 14.954C6.30376 16.0072 7.21123 16.8705 8.29272 17.4558C8.92775 17.8132 9.60849 18.1338 10.2679 18.4482H10.2831C11.2555 18.8949 12.2949 19.3544 13.2124 19.7612L13.4913 19.897C14.8375 20.5505 16.2346 21.2284 16.9752 22.3985C17.3755 23.08 17.6181 23.8433 17.685 24.6318C17.7519 25.4203 17.6415 26.2138 17.3618 26.9536C17.3468 26.9815 17.3336 27.0103 17.3222 27.0399V27.0772C17.0299 27.6626 16.628 28.1859 16.1385 28.6184C14.9732 29.6032 13.5781 30.2746 12.0841 30.5695C12.0422 30.5775 12.0048 30.6009 11.9792 30.6351C11.9535 30.6692 11.9414 30.7118 11.9452 30.7544C11.949 30.797 11.9684 30.8367 11.9997 30.8658C12.031 30.8948 12.0719 30.9111 12.1145 30.9115C13.8516 30.8586 15.5687 30.523 17.1988 29.9176C19.1386 29.2036 20.8778 28.0289 22.2683 26.4937C24.0341 24.5853 24.9998 22.0662 24.9643 19.4606C24.9643 17.8116 24.6239 15.4046 21.683 13.5526Z" fill="#181818"/>
<path d="M53.9091 16.0179C53.7496 17.0012 53.0841 18.8594 50.4495 20.2311C48.4439 21.2761 45.2017 21.3715 43.4597 21.4236C43.4182 21.423 43.3784 21.4071 43.3478 21.3788C43.3172 21.3506 43.2981 21.312 43.2941 21.2705C43.2893 21.2275 43.3004 21.1843 43.3254 21.149C43.3503 21.1138 43.3873 21.0891 43.4293 21.0795C44.7601 20.727 45.9224 19.9097 46.708 18.7741C47.669 17.4214 48.371 15.9008 48.7782 14.2899C49.1587 12.8319 49.0388 11.7257 48.4439 11.1759C48.418 11.1517 48.4001 11.1202 48.3924 11.0856C48.3847 11.051 48.3876 11.0148 48.4007 10.9819C48.4125 10.9492 48.4343 10.9212 48.4629 10.9018C48.4916 10.8824 48.5257 10.8727 48.5602 10.8742C51.2375 11.0038 52.3018 11.8635 52.8692 12.5016C53.2999 12.9686 53.6177 13.529 53.798 14.1393C53.9784 14.7497 54.0164 15.3935 53.9091 16.021V16.0179Z" fill="#181818"/>
<path d="M53.015 25.8402C51.6413 26.4987 50.1447 26.8579 48.6232 26.8944C45.7864 26.8944 43.1793 25.3226 42.431 22.6935C41.8615 20.3692 42.0393 17.9233 42.939 15.7069C43.7292 13.7023 45.2154 12.0534 47.1225 11.0654C47.1591 11.0489 47.1889 11.0201 47.2065 10.9839C47.2242 10.9476 47.2287 10.9063 47.2192 10.8672C47.2098 10.828 47.1869 10.7933 47.1547 10.7693C47.1224 10.7453 47.0828 10.7334 47.0427 10.7356C44.8853 10.878 42.7881 11.5102 40.9089 12.5846C38.7307 13.8689 37.0512 15.8586 36.1458 18.2277C35.5107 19.7537 35.2347 21.4063 35.339 23.057C35.4373 24.4814 35.9045 25.8552 36.6944 27.042C38.2769 29.4091 41.0954 30.7803 44.2669 30.8048C46.7279 30.8178 49.1198 29.9873 51.0479 28.4504C51.9005 27.7862 52.6419 26.9893 53.2441 26.0899C53.2644 26.0583 53.274 26.021 53.2713 25.9835C53.2686 25.946 53.2538 25.9105 53.2291 25.8822C53.2044 25.854 53.1713 25.8346 53.1346 25.827C53.098 25.8194 53.0599 25.8241 53.0262 25.8402H53.015Z" fill="#181818"/>
<path d="M32.3438 25.2135V25.1799L34.7055 13.9862H37.4168C37.4504 13.9867 37.4833 13.977 37.5113 13.9583C37.5392 13.9396 37.5608 13.9128 37.5733 13.8815L38.4933 11.7241C38.5044 11.6976 38.5088 11.6687 38.5062 11.64C38.5035 11.6113 38.4939 11.5837 38.4781 11.5597C38.4624 11.5356 38.441 11.5158 38.4158 11.502C38.3906 11.4883 38.3625 11.4809 38.3338 11.4806H35.2268L36.6192 4.87888L36.6624 4.76197C36.6744 4.72875 36.676 4.69262 36.6669 4.65848C36.6578 4.62433 36.6385 4.59381 36.6116 4.57105C36.5982 4.55641 36.5826 4.54401 36.5654 4.53429C36.5331 4.51631 36.4959 4.50928 36.4592 4.51425C36.4226 4.51921 36.3886 4.53591 36.3622 4.56186L36.2271 4.69765L24.7987 13.6763C24.7715 13.6986 24.7517 13.7287 24.7421 13.7626C24.7324 13.7965 24.7333 13.8325 24.7446 13.8659C24.756 13.8993 24.7772 13.9283 24.8055 13.9492C24.8338 13.9701 24.8678 13.9817 24.9029 13.9826H27.4241L25.4124 23.3247L25.3911 23.4294C25.2115 24.2281 25.1095 25.0424 25.0862 25.8609C25.0405 26.528 25.1357 27.1973 25.3657 27.8248C25.5957 28.4523 25.9552 29.0238 26.4206 29.5018C26.886 29.9797 27.4468 30.3533 28.0661 30.598C28.6855 30.8427 29.3493 30.9529 30.014 30.9214C31.8358 30.9214 33.3877 29.9694 34.637 28.0861C34.6543 28.0579 34.6635 28.0254 34.6635 27.9922C34.6635 27.959 34.6543 27.9265 34.637 27.8983C34.6118 27.8584 34.5723 27.8297 34.5267 27.8181C34.4822 27.8091 34.4359 27.8179 34.3977 27.8426C34.0413 28.0602 33.6366 28.1852 33.2201 28.2061C33.0946 28.2122 32.9691 28.1923 32.8515 28.1478C32.7339 28.1033 32.6267 28.0351 32.5363 27.9473C32.2407 27.5555 32.1078 27.0638 32.1655 26.5756C32.1862 26.1173 32.2459 25.6616 32.3438 25.2135Z" fill="#181818"/>
<path d="M86.5588 11.5856H86.5893C86.6227 11.5809 86.6539 11.5665 86.6792 11.5442C86.7044 11.5218 86.7226 11.4925 86.7314 11.4599C86.7402 11.4273 86.7393 11.3928 86.7288 11.3606C86.7182 11.3285 86.6986 11.3002 86.6721 11.2793C85.9636 10.8277 85.1369 10.599 84.2982 10.6228C82.8016 10.6228 80.4063 11.1557 77.4989 13.6858L77.4623 13.7195C76.9038 14.208 76.3905 14.7464 75.9286 15.328C75.0042 16.5429 74.2603 17.8863 73.7203 19.316C73.1509 20.7312 72.8393 22.2376 72.8002 23.7635C72.8027 24.7534 72.9706 25.7358 73.2971 26.6698C73.7894 28.1482 74.8161 29.387 76.174 30.1412C77.0981 30.6518 78.1311 30.931 79.1855 30.9549C80.1413 30.9097 81.0757 30.6552 81.9233 30.209C82.7709 29.7629 83.5112 29.1361 84.0924 28.3723C84.1165 28.3381 84.1278 28.2966 84.1244 28.2549C84.1211 28.2132 84.1033 28.174 84.0741 28.1441C84.043 28.1171 84.0032 28.1023 83.9621 28.1023C83.921 28.1023 83.8813 28.1171 83.8501 28.1441C83.3751 28.4701 82.8118 28.6412 82.2367 28.6342C81.9716 28.6568 81.7048 28.6221 81.4542 28.5323C81.2037 28.4425 80.9752 28.2997 80.7842 28.1136C80.5933 27.9275 80.4442 27.7024 80.3472 27.4535C80.2502 27.2046 80.2075 26.9377 80.2219 26.6708C80.2036 24.9913 80.6664 21.5239 82.0314 17.2863L82.0746 17.1566C82.3794 16.1765 83.0347 14.1365 83.5621 13.3473C83.7925 12.9807 84.0757 12.6504 84.4023 12.3671C84.9145 11.8892 85.5783 11.6085 86.2764 11.5748C86.3707 11.5707 86.4651 11.5742 86.5588 11.5856Z" fill="#181818"/>
<path d="M94.8518 27.8987C94.8271 27.8597 94.7889 27.8311 94.7446 27.8186C94.699 27.8091 94.6516 27.8179 94.6125 27.8431C94.2572 28.0607 93.8535 28.1857 93.4379 28.2066C93.3119 28.2131 93.1859 28.1934 93.0677 28.1489C92.9496 28.1044 92.8418 28.0359 92.7511 27.9477C92.4555 27.556 92.3226 27.0643 92.3803 26.576C92.4018 26.1177 92.4623 25.662 92.5611 25.214C92.5625 25.2039 92.5625 25.1936 92.5611 25.1834L95.5665 11.3948C95.6301 11.1639 95.7332 10.9459 95.8713 10.7506C95.893 10.7236 95.9061 10.6906 95.9088 10.656C95.9115 10.6214 95.9038 10.5867 95.8866 10.5566C95.8692 10.5264 95.8434 10.5021 95.8123 10.4867C95.7811 10.4714 95.7462 10.4657 95.7118 10.4703C95.5675 10.4918 88.9217 11.8017 87.3021 12.1223C87.2752 12.1284 87.2499 12.1403 87.2281 12.1574C87.2063 12.1744 87.1886 12.1961 87.1761 12.2208C87.1639 12.2458 87.1576 12.2732 87.1576 12.301C87.1576 12.3288 87.1639 12.3562 87.1761 12.3811C87.5183 12.9859 87.6631 13.6833 87.5902 14.3751V14.4027C87.5914 14.4425 87.5852 14.4821 87.5719 14.5196C87.5383 14.7968 87.4738 15.1113 87.36 15.6289L85.615 23.3063L85.5967 23.4109C85.4157 24.2094 85.3136 25.0238 85.2919 25.8425C85.2407 27.0704 85.6352 28.2752 86.4019 29.2327C86.928 29.8482 87.6061 30.3137 88.3679 30.5824C88.9529 30.8157 89.5788 30.9279 90.208 30.9122C92.0297 30.9122 93.5817 29.9601 94.8309 28.0769C94.8494 28.0514 94.8608 28.0214 94.864 27.99C94.8672 27.9587 94.8621 27.927 94.8492 27.8982L94.8518 27.8987Z" fill="#181818"/>
<path d="M73.0949 27.8188C73.0494 27.8096 73.0021 27.8184 72.9628 27.8433C72.6076 28.0609 72.2038 28.1859 71.7883 28.2068C71.6628 28.2128 71.5373 28.193 71.4197 28.1485C71.3021 28.104 71.1948 28.0357 71.1045 27.9479C70.8087 27.5562 70.6756 27.0645 70.7331 26.5762C70.7547 26.1179 70.8152 25.6622 70.914 25.2142C70.9128 25.203 70.9128 25.1917 70.914 25.1805L75.6385 3.11681L76.019 1.41532C76.0815 1.18397 76.1847 0.965761 76.3239 0.771067C76.344 0.742791 76.3549 0.708869 76.3549 0.674072C76.3549 0.639275 76.344 0.605354 76.3239 0.577078C76.3064 0.547175 76.2806 0.523125 76.2496 0.507954C76.2186 0.492784 76.1838 0.487172 76.1496 0.491824C76.0272 0.510202 67.1069 2.26683 67.0561 2.28265C67.0238 2.29211 66.995 2.31089 66.9732 2.33667C66.9515 2.36244 66.9377 2.39407 66.9337 2.42763C66.9307 2.46114 66.9371 2.49482 66.9523 2.52481C66.9675 2.55479 66.9908 2.57986 67.0195 2.59712C67.3612 2.78276 67.6385 3.06866 67.8144 3.4167C67.9903 3.76474 68.0565 4.15839 68.0041 4.54518C67.9528 4.91842 67.8821 5.28869 67.7922 5.65449L63.9826 23.3111L63.9613 23.4157C63.7817 24.2144 63.6797 25.0288 63.6565 25.8472C63.6053 27.0752 63.9998 28.2799 64.7665 29.2375C65.2939 29.8529 65.9729 30.3183 66.7355 30.5872C67.3205 30.8205 67.9464 30.9327 68.5756 30.917C70.4156 30.917 71.9493 29.9649 73.2036 28.0817C73.2216 28.0531 73.2311 28.02 73.2311 27.9862C73.2311 27.9524 73.2216 27.9193 73.2036 27.8908C73.1781 27.8538 73.1399 27.8275 73.0964 27.8167L73.0949 27.8188Z" fill="#181818"/>
<path d="M63.4065 27.8187C63.361 27.8096 63.3137 27.8183 63.2744 27.8432C62.9192 28.0609 62.5154 28.1858 62.0999 28.2067C61.9744 28.2128 61.8489 28.193 61.7313 28.1484C61.6137 28.1039 61.5064 28.0357 61.4161 27.9479C61.1178 27.5574 60.9834 27.065 61.0417 26.5762C61.0633 26.1178 61.1238 25.6622 61.2225 25.2142V25.1805L65.9471 3.11674L66.318 1.41525C66.3833 1.185 66.4863 0.967273 66.6228 0.771003C66.6457 0.744702 66.6598 0.711803 66.6631 0.67698C66.6664 0.642156 66.6587 0.607178 66.6411 0.577014C66.6237 0.5472 66.5979 0.523208 66.567 0.508043C66.5361 0.492878 66.5014 0.487214 66.4673 0.491761C66.3449 0.510139 57.4195 2.26676 57.3738 2.28259C57.3438 2.29342 57.3174 2.31243 57.2976 2.33747C57.2778 2.36251 57.2652 2.39261 57.2614 2.42439C57.2576 2.45618 57.2627 2.4884 57.2761 2.51745C57.2895 2.5465 57.3107 2.57123 57.3372 2.58889C57.6786 2.77461 57.9554 3.06055 58.1308 3.40855C58.3062 3.75654 58.3717 4.15002 58.3187 4.53644C58.2674 4.90967 58.1967 5.27995 58.1069 5.64575L54.2967 23.3054L54.2785 23.4101C54.099 24.2088 53.9969 25.0231 53.9737 25.8416C53.9211 27.0693 54.3141 28.2744 55.0796 29.2328C55.6057 29.8483 56.2838 30.3138 57.0456 30.5826C57.6307 30.8156 58.2565 30.9278 58.8857 30.9123C60.7074 30.9123 62.2594 29.9603 63.5137 28.077C63.5317 28.0485 63.5412 28.0154 63.5412 27.9816C63.5412 27.9478 63.5317 27.9147 63.5137 27.8861C63.4864 27.8522 63.4487 27.8288 63.4065 27.8187Z" fill="#181818"/>
<path d="M102.968 11.1788C102.791 11.1791 102.615 11.1962 102.441 11.2298L99.9197 11.726L97.9506 12.1114C97.9239 12.1169 97.8989 12.1287 97.8776 12.1458C97.8563 12.163 97.8394 12.1849 97.8282 12.21C97.8161 12.2344 97.8097 12.2613 97.8097 12.2886C97.8097 12.3159 97.8161 12.3428 97.8282 12.3672C98.1724 12.9703 98.3203 13.6664 98.2514 14.3581C98.2514 14.3581 98.2514 14.3581 98.2514 14.3826C98.2484 14.4229 98.2433 14.4629 98.2361 14.5026C98.1851 14.8767 98.1154 15.2479 98.0274 15.615L97.9171 16.0989C97.9023 16.1328 97.8901 16.1678 97.8805 16.2036C97.5757 17.5564 96.6537 21.865 95.9358 25.3292C95.4024 27.8817 94.9422 30.0845 94.8655 30.3745C94.8595 30.3999 94.8591 30.4263 94.8643 30.4519C94.8696 30.4775 94.8804 30.5016 94.8959 30.5225C94.9121 30.5439 94.933 30.5611 94.957 30.5729C94.981 30.5847 95.0074 30.5907 95.0341 30.5904H102.088C102.127 30.5901 102.165 30.5765 102.196 30.5519C102.226 30.5273 102.248 30.493 102.257 30.4547C102.272 30.3714 104.02 22.1024 104.33 20.8358C104.916 18.4503 105.25 16.1393 105.274 16.0096C105.731 13.7966 105.241 12.6194 104.75 12.0032C104.535 11.7389 104.262 11.5272 103.953 11.3842C103.645 11.2411 103.308 11.1703 102.968 11.1772L102.968 11.1788Z" fill="#181818"/>
<path d="M19.6373 2.22759C19.6647 2.22759 22.4283 3.1521 24.213 9.90497C24.2228 9.94121 24.2438 9.97335 24.2731 9.99669C24.3023 10.02 24.3382 10.0333 24.3756 10.0346C24.4121 10.0342 24.4476 10.0224 24.4772 10.0009C24.5068 9.97946 24.5292 9.94934 24.5412 9.91467C24.5456 9.884 24.5538 9.854 24.5656 9.82534C24.6545 9.48943 26.2308 2.95556 26.2461 2.89686C26.2541 2.86173 26.2513 2.82499 26.2382 2.79146C26.225 2.75794 26.2021 2.72919 26.1724 2.70899C26.1435 2.68775 26.1087 2.6763 26.0729 2.6763C26.037 2.6763 26.0022 2.68775 25.9733 2.70899C25.5948 3.00852 25.1271 3.17142 24.6453 3.1715C24.3297 3.1725 24.017 3.11074 23.7253 2.98977C22.4216 2.51307 21.0807 2.14612 19.7165 1.89271C19.6941 1.8856 19.6703 1.88323 19.6469 1.88573C19.6235 1.88824 19.6008 1.89557 19.5803 1.90727C19.5598 1.91896 19.5419 1.93478 19.5277 1.95373C19.5136 1.97267 19.5035 1.99435 19.498 2.01739C19.4926 2.04044 19.4919 2.06437 19.496 2.0877C19.5002 2.11102 19.5091 2.13323 19.5221 2.15295C19.5352 2.17267 19.5522 2.18947 19.572 2.20231C19.5918 2.21516 19.614 2.22376 19.6373 2.22759Z" fill="#181818"/>
<path d="M8.29786 30.0435C7.54878 29.5587 6.89135 28.9441 6.35622 28.2282C5.38388 26.9953 4.06506 24.7823 3.30812 21.2165C3.30026 21.1798 3.28073 21.1468 3.2525 21.1223C3.22427 21.0978 3.18887 21.0832 3.15165 21.0807C3.11528 21.0776 3.07889 21.0864 3.04793 21.1058C3.01697 21.1252 2.99311 21.1542 2.97994 21.1884C2.96657 21.2184 2.95537 21.2492 2.94641 21.2808C2.84836 21.6014 0.965146 28.1011 0.879291 28.3767C0.869774 28.4112 0.871164 28.4478 0.88327 28.4815C0.895376 28.5152 0.917597 28.5442 0.946857 28.5646C0.976103 28.585 1.01084 28.5959 1.04643 28.5959C1.08202 28.5959 1.11675 28.585 1.146 28.5646C1.52174 28.2932 1.9716 28.1447 2.43433 28.1394C2.76359 28.1358 3.08737 28.2241 3.36959 28.3946C4.87382 29.281 6.49471 29.9502 8.18457 30.3825H8.23995C8.28496 30.3817 8.32785 30.3631 8.3594 30.3309C8.39094 30.2986 8.40862 30.2552 8.40861 30.2099C8.40922 30.1742 8.39894 30.1391 8.37915 30.1093C8.35935 30.0796 8.33099 30.0566 8.29786 30.0435Z" fill="#181818"/>
</g>
<defs>
<clipPath id="clip0_207_644">
<rect width="114" height="31" fill="white" transform="translate(0.870117 0.489258)"/>
</clipPath>
</defs>
</svg>
