<svg width="142" height="47" viewBox="0 0 142 47" fill="none" xmlns="http://www.w3.org/2000/svg">
<g clip-path="url(#clip0_207_607)">
<path fill-rule="evenodd" clip-rule="evenodd" d="M13.3828 1.07812V5.04468H3.87266V11.7379H11.4938V15.5631H3.87308V26.0814H-0.641846V1.07812H13.3828ZM22.5441 8.01906C24.2829 8.01906 25.8394 8.38622 27.2134 9.12053C28.6083 9.85484 29.7029 10.9237 30.497 12.327C31.2914 13.7093 31.6886 15.3397 31.6886 17.2182C31.6886 19.097 31.2914 20.7274 30.497 22.1094C29.7026 23.4914 28.6079 24.5604 27.213 25.3163C25.8392 26.0506 24.2829 26.4178 22.5441 26.4178C20.8055 26.4178 19.2386 26.0506 17.8434 25.3163C16.4696 24.5606 15.3856 23.4917 14.5912 22.1094C13.7971 20.7274 13.4 19.097 13.4 17.2182C13.4 15.3397 13.7971 13.7093 14.5912 12.327C15.3859 10.9237 16.4699 9.85484 17.8434 9.12053C19.2386 8.38622 20.8052 8.01906 22.5441 8.01906ZM22.5445 11.9708C21.2781 11.9708 20.205 12.4244 19.3249 13.3314C18.4446 14.2168 18.0046 15.5124 18.0049 17.2182C18.0049 18.9243 18.4449 20.2309 19.3249 21.1379C20.205 22.023 21.2781 22.4656 22.5445 22.4656C23.8108 22.4656 24.8842 22.0229 25.7645 21.1375C26.6445 20.2307 27.0845 18.9243 27.0845 17.2182C27.0845 15.5124 26.6445 14.2168 25.7645 13.3314C24.8845 12.4244 23.8111 11.9708 22.5445 11.9708ZM47.3128 9.05005C45.9388 8.31574 44.3825 7.94858 42.6439 7.94858C40.9053 7.94858 39.3383 8.31574 37.9428 9.05005C36.569 9.78436 35.4851 10.8532 34.691 12.2565C33.8969 13.6388 33.4998 15.2692 33.4998 17.1477C33.4998 19.0266 33.8969 20.657 34.691 22.0389C35.4851 23.4209 36.569 24.4899 37.9428 25.2458C39.338 25.9802 40.905 26.3473 42.6439 26.3473C44.3825 26.3473 45.9388 25.9802 47.3128 25.2458C48.7077 24.4902 49.8024 23.4212 50.5968 22.0389C51.3909 20.657 51.788 19.0266 51.788 17.1477C51.788 15.2689 51.3909 13.6385 50.5968 12.2565C49.8024 10.8532 48.7077 9.78436 47.3128 9.05005ZM39.4239 13.261C40.3042 12.3539 41.3776 11.9004 42.6439 11.9004C43.9103 11.9004 44.9836 12.3539 45.8639 13.261C46.7439 14.1463 47.1839 15.4419 47.1839 17.1477C47.1839 18.8535 46.7439 20.16 45.8639 21.067C44.9836 21.9524 43.9103 22.3951 42.6439 22.3951C41.3776 22.3951 40.3042 21.9524 39.4239 21.067C38.5439 20.1602 38.1039 18.8538 38.1039 17.1477C38.1039 15.4419 38.5439 14.1463 39.4239 13.261ZM100.377 8.01948C102.115 8.01948 103.671 8.3865 105.045 9.12053C106.44 9.85484 107.535 10.9237 108.329 12.327C109.124 13.7093 109.521 15.3397 109.521 17.2182C109.521 19.097 109.124 20.7274 108.329 22.1094C107.535 23.4914 106.44 24.5604 105.045 25.3163C103.671 26.0506 102.115 26.4178 100.377 26.4178C98.6376 26.4178 97.0706 26.0506 95.6754 25.3163C94.3017 24.5606 93.2177 23.4917 92.4236 22.1094C91.6292 20.7274 91.232 19.097 91.232 17.2182C91.232 15.3397 91.6292 13.7093 92.4236 12.327C93.2177 10.9237 94.3017 9.85484 95.6754 9.12053C97.0706 8.38622 98.6376 8.01948 100.377 8.01948ZM100.377 11.9704C99.1102 11.9704 98.0368 12.4239 97.1565 13.331C96.2765 14.2164 95.8365 15.512 95.8365 17.2178C95.8365 18.9236 96.2765 20.2302 97.1565 21.1375C98.0368 22.0226 99.1102 22.4652 100.377 22.4652C101.643 22.4652 102.716 22.0225 103.596 21.1371C104.476 20.2303 104.916 18.9239 104.916 17.2178C104.916 15.512 104.476 14.2164 103.596 13.331C102.716 12.4239 101.643 11.9704 100.377 11.9704ZM125.144 9.04963C123.771 8.31532 122.214 7.94816 120.475 7.94816C118.737 7.94816 117.17 8.31532 115.774 9.04963C114.401 9.78394 113.317 10.8528 112.523 12.2561C111.728 13.6381 111.331 15.2685 111.331 17.1473C111.331 19.0261 111.728 20.6565 112.523 22.0385C113.317 23.4205 114.401 24.4895 115.774 25.2454C117.17 25.9797 118.737 26.3469 120.475 26.3469C122.214 26.3469 123.77 25.9797 125.144 25.2454C126.54 24.4897 127.634 23.4208 128.428 22.0385C129.223 20.6565 129.62 19.0261 129.62 17.1473C129.62 15.2685 129.223 13.6381 128.428 12.2561C127.634 10.8522 126.539 9.78338 125.144 9.04963ZM117.256 13.2605C118.136 12.3535 119.209 11.8999 120.475 11.8999C121.742 11.8999 122.815 12.3535 123.695 13.2605C124.576 14.1459 125.016 15.4415 125.016 17.1473C125.016 18.8531 124.576 20.1595 123.695 21.0666C122.815 21.952 121.742 22.3947 120.475 22.3947C119.209 22.3947 118.136 21.952 117.256 21.0666C116.375 20.1595 115.935 18.8531 115.935 17.1473C115.935 15.4415 116.375 14.1459 117.256 13.2605ZM58.12 1.07812V26.0814H53.5043V1.07812H58.12ZM87.2146 8.92049C86.1197 9.56815 85.2397 10.4642 84.5745 11.6087V8.17521H80.0344V26.1203H84.5745V17.4718C84.5745 14.3621 86.238 12.8073 89.5651 12.8073H90.8852V7.91609C89.5326 7.91609 88.3091 8.25089 87.2146 8.92049ZM140.313 5.06578C138.982 4.9794 138.049 5.17381 137.512 5.64901C136.976 6.1242 136.708 6.95557 136.707 8.14313V8.17521H140.313V12.0299H136.707V26.1203H132.167V12.0299H129.881V8.17521H132.167V7.75403C132.167 5.61637 132.768 3.97528 133.97 2.83077C135.194 1.66459 136.997 1.0815 139.38 1.0815C139.788 1.0815 140.099 1.09233 140.313 1.114V5.06578ZM69.7117 26.349C67.3988 26.349 65.5068 25.5733 64.3855 24.2693V34.104H60.158V8.37145H64.3855V10.3807C65.5068 9.00616 67.2938 8.01906 69.6414 8.01906C73.6007 8.01906 78.1211 10.9449 78.1211 17.184C78.1211 23.3877 73.4258 26.349 69.7117 26.349ZM66.2135 13.1905C67.0935 12.2834 68.1667 11.8299 69.4331 11.8299C70.6994 11.8299 71.7728 12.2834 72.6531 13.1905C73.5331 14.0759 73.9731 15.3715 73.9731 17.0773C73.9731 18.7831 73.5331 20.0895 72.6531 20.9965C71.7728 21.8819 70.6994 22.3246 69.4331 22.3246C68.1667 22.3246 67.0935 21.8819 66.2135 20.9965C65.3332 20.0895 64.893 18.7831 64.893 17.0773C64.893 15.3715 65.3332 14.0759 66.2135 13.1905ZM59.981 43.8434C59.981 42.6617 61.2137 42.2621 62.5044 42.2621H63.2266V41.881C63.2266 41.0749 62.9174 40.7263 62.1475 40.7263C61.4542 40.7263 61.071 41.0188 60.994 41.6446H60.2007C60.3091 40.482 61.2216 40.0528 62.1952 40.0528C63.1684 40.0528 64.0332 40.4524 64.0332 41.881V45.2499H63.2399V44.6059C63.0591 44.8501 62.8209 45.0451 62.5467 45.1731C62.2733 45.3014 61.9723 45.3583 61.6714 45.3386C60.7245 45.3491 59.981 44.8904 59.981 43.8434ZM63.2266 43.4728V42.839H62.5337C61.5233 42.839 60.7798 43.0913 60.7798 43.8434C60.7798 44.3802 61.0442 44.7047 61.735 44.7047C62.5814 44.7047 63.2266 44.2645 63.2266 43.4728ZM100.505 42.6735V42.7516C100.505 44.3333 101.537 45.3394 102.898 45.3394C103.426 45.3659 103.943 45.1805 104.336 44.8237C104.737 44.4599 104.986 43.9564 105.034 43.4146H104.313C104.284 43.7705 104.12 44.1014 103.855 44.3388C103.727 44.4539 103.577 44.542 103.414 44.5982C103.252 44.6543 103.08 44.6773 102.908 44.6659C101.961 44.6659 101.305 44.0029 101.305 42.7516V42.6735C101.305 41.4708 101.99 40.7293 102.88 40.7293C103.554 40.7293 104.115 41.0357 104.239 41.8409H105.011C104.861 40.5411 103.914 40.0528 102.885 40.0528C101.573 40.0528 100.505 41.1078 100.505 42.6735ZM105.987 42.7305V42.6638C105.987 41.1298 107.007 40.0528 108.371 40.0528C109.735 40.0528 110.755 41.1272 110.755 42.6533V42.7305C110.755 44.2755 109.735 45.3424 108.361 45.3424C106.987 45.3424 105.987 44.227 105.987 42.7305ZM109.957 42.7305V42.6638C109.957 41.4792 109.337 40.7183 108.371 40.7183C107.405 40.7183 106.786 41.4792 106.786 42.6533V42.7305C106.786 43.894 107.387 44.6574 108.371 44.6574C109.355 44.6574 109.949 43.886 109.949 42.7309L109.957 42.7305ZM112.498 40.1469H111.708L111.753 45.3424H112.543V42.1671C112.534 41.9844 112.562 41.8016 112.625 41.6303C112.688 41.4594 112.784 41.3037 112.908 41.1728C113.03 41.0421 113.178 40.9391 113.343 40.8707C113.507 40.8023 113.682 40.7694 113.859 40.7749C114.538 40.7749 114.912 41.1543 114.912 42.0662V45.3424H115.701V42.1671C115.693 41.9844 115.721 41.8016 115.784 41.6303C115.847 41.4594 115.943 41.3037 116.066 41.1728C116.189 41.0421 116.337 40.9391 116.502 40.8707C116.665 40.8023 116.84 40.7694 117.017 40.7749C117.696 40.7749 118.07 41.1543 118.07 42.0662V45.3424H118.86V42.1232C118.86 40.6027 118.073 40.0566 117.172 40.0566C116.828 40.048 116.489 40.1336 116.189 40.3043C115.888 40.4756 115.636 40.7263 115.459 41.0314C115.35 40.7288 115.148 40.4695 114.882 40.2916C114.62 40.1163 114.307 40.0336 113.993 40.0566C113.688 40.0446 113.387 40.1214 113.124 40.2777C112.86 40.4339 112.643 40.6639 112.498 40.9416V40.1469ZM120.29 40.1418H121.08V41.0002C121.264 40.7139 121.515 40.4777 121.811 40.3125C122.106 40.1472 122.438 40.058 122.776 40.0528C124.094 40.0528 125.057 41.0293 125.057 42.6229V42.701C125.057 44.262 124.157 45.3352 122.776 45.3352C122.438 45.3485 122.102 45.2695 121.804 45.1065C121.505 44.9427 121.255 44.7011 121.08 44.4067V47.0254H120.29V40.1418ZM124.241 42.7381V42.6714C124.241 41.3834 123.54 40.7398 122.697 40.7398C121.768 40.7398 121.059 41.3623 121.059 42.6714V42.7491C121.059 44.0582 121.731 44.6726 122.708 44.6726C123.685 44.6726 124.238 43.978 124.238 42.7381H124.241ZM128.297 42.2511C127.006 42.2511 125.772 42.6512 125.772 43.8349C125.772 44.8794 126.513 45.3381 127.459 45.3381C127.76 45.3588 128.062 45.3025 128.336 45.1744C128.611 45.0462 128.85 44.8506 129.031 44.6055V45.2495H129.825V41.8805C129.825 40.4554 128.959 40.0528 127.985 40.0528C127.012 40.0528 126.096 40.4824 125.99 41.6476H126.784C126.86 41.0217 127.247 40.7293 127.94 40.7293C128.71 40.7293 129.02 41.0753 129.02 41.8805V42.2511H128.297ZM129.02 42.8284V43.4618C129.02 44.254 128.374 44.6941 127.528 44.6941C126.823 44.6941 126.572 44.3721 126.572 43.8349C126.572 43.0972 127.313 42.8284 128.327 42.8284H129.02ZM131.017 40.1515H131.831V40.9698C131.994 40.6752 132.236 40.4331 132.529 40.2714C132.822 40.1097 133.155 40.0351 133.489 40.0562C134.555 40.0562 135.308 40.6428 135.308 42.1506V45.3424H134.493V42.0966C134.493 41.1851 134.108 40.7761 133.278 40.7761C133.088 40.7637 132.897 40.7918 132.718 40.8587C132.54 40.9255 132.377 41.0295 132.241 41.164C132.106 41.2977 131.999 41.4589 131.929 41.6369C131.86 41.815 131.828 42.0058 131.836 42.1971V45.3424H131.022L131.017 40.1515ZM135.784 40.2929L137.723 44.7714L136.79 47.0254H137.57L140.313 40.2933H139.508L138.138 43.8746L136.624 40.2929H135.784ZM85.9531 41.8915C84.9602 41.6079 84.5385 41.4636 84.5385 41.0192C84.5385 40.5107 84.9929 40.2672 85.5506 40.2752C86.3121 40.2752 86.9949 40.8449 87.3677 41.7902H87.5417V40.2752C86.9094 40.1437 86.2667 40.0693 85.6213 40.0528C84.1661 40.0528 83.3419 40.6816 83.3419 41.6991C83.3419 42.5212 83.8858 43.0082 85.1263 43.3534C86.3669 43.6986 86.7259 43.8408 86.7259 44.3489C86.7259 44.8072 86.2305 45.1119 85.6104 45.1119C84.6309 45.1119 83.8778 44.389 83.5456 43.396H83.3824V45.0748C84.1226 45.2512 84.8816 45.3415 85.6431 45.3424C87.0656 45.3424 87.871 44.7237 87.871 43.6264C87.871 42.7107 87.2426 42.2882 85.9669 41.8995L85.9531 41.8915ZM79.3683 41.1483C79.8876 40.5554 80.4587 40.2933 80.9704 40.2933C81.9607 40.2933 82.3883 40.8913 82.3883 41.8067V45.3398H80.8934V41.8067C80.8934 41.2534 80.6403 40.9909 80.2332 40.9909C80.0701 41.0061 79.9115 41.0535 79.7665 41.1305C79.6216 41.2074 79.4931 41.3125 79.3884 41.4395V45.3424H77.9119V41.2374C77.9119 40.831 77.6763 40.5529 77.1441 40.5529V40.3613H79.3683V41.1483ZM97.6523 40.0528C96.9042 40.0528 96.3444 40.5782 95.8653 41.7147V40.138H93.5918V40.3376C94.1361 40.3376 94.3767 40.6284 94.3767 41.0521V45.3428H95.8892V42.1118C96.1273 41.6383 96.5168 41.5645 97.0193 41.5645H97.8829V40.0587L97.6523 40.0528ZM88.5568 41.2129C88.5568 40.4596 89.6396 40.0524 90.9646 40.0524C92.3529 40.0524 93.3537 40.5107 93.3537 41.7299V45.2407H91.6437V44.6591C91.4234 44.875 91.1639 45.046 90.8793 45.1626C90.5921 45.2802 90.2851 45.3412 89.9751 45.3424C88.9718 45.3424 88.3476 44.7849 88.3476 44.0506C88.3476 43.3163 88.8509 42.971 89.4007 42.7993L91.6215 42.0861V41.3256C91.6215 40.663 91.278 40.2887 90.6513 40.2887C90.4723 40.287 90.2938 40.3094 90.1207 40.3554V41.8025C89.8923 41.88 89.6525 41.918 89.4116 41.9147C88.8894 41.9147 88.5568 41.6202 88.5568 41.2129ZM90.1099 42.8529V43.8071C90.1099 44.3751 90.3601 44.6701 90.8492 44.6701C91.1338 44.6823 91.4115 44.5802 91.6215 44.3861V42.3625L90.1099 42.8529ZM74.5317 40.2933C72.9961 40.2933 71.8999 41.2319 71.8999 42.7592C71.8999 44.2865 72.7966 45.339 74.6727 45.339C75.111 45.3622 75.5477 45.2684 75.9387 45.0672C76.3235 44.8687 76.6476 44.5685 76.8764 44.1987L76.6981 44.0928C76.5277 44.3341 76.3013 44.5297 76.0387 44.6625C75.7727 44.7975 75.4788 44.8674 75.181 44.8667C74.1831 44.8667 73.6534 44.1911 73.6534 43.0614V42.7828H76.9057V42.4984C76.9057 41.1834 76.0781 40.2933 74.5317 40.2933ZM75.2212 42.5376H73.6589V40.6723C73.8491 40.5804 74.0576 40.5336 74.2685 40.5356C74.907 40.5356 75.2266 40.9124 75.2266 41.5674L75.2212 42.5376ZM71.423 40.2933V40.4263L69.008 42.8229V45.1398C69.5247 45.1399 70.0262 44.964 70.4314 44.6405C70.8315 44.3225 71.1093 43.8738 71.2171 43.3715H71.3933V45.3424H66.4173V45.2115L68.8536 42.8145V40.487C68.3705 40.4884 67.9022 40.6557 67.526 40.9614C67.155 41.2627 66.9006 41.6858 66.8072 42.157H66.6311V40.2933H71.423Z" fill="black"/>
</g>
<defs>
<clipPath id="clip0_207_607">
<rect width="141" height="46" fill="white" transform="translate(0.119141 0.989258)"/>
</clipPath>
</defs>
</svg>
