<svg width="113" height="76" viewBox="0 0 113 76" fill="currentColor" xmlns="http://www.w3.org/2000/svg">
<path fill-rule="evenodd" clip-rule="evenodd" d="M52.8851 71.6947C46.973 67.9155 42.6176 54.8735 42.6176 39.3778C42.6176 38.8092 42.6212 38.2488 42.6337 37.6884L42.6408 37.6966C26.1973 35.0592 14.3165 27.8337 14.0122 19.2895L13.9639 19.388C9.94052 24.4909 7.64397 30.3909 7.64397 36.6775C7.64397 55.1762 27.5413 70.3336 52.7787 71.6741L52.8851 71.6947ZM0.041687 38.0272C0.041687 17.3283 25.2814 0.545898 56.4183 0.545898C87.5544 0.545898 112.795 17.3283 112.795 38.0272C112.795 58.7261 87.554 75.509 56.4183 75.509C25.2814 75.509 0.041687 58.7256 0.041687 38.0272ZM56.4183 5.95522C62.4291 5.95522 67.5418 15.2605 69.4358 28.2441L69.443 28.2245C81.1366 26.3668 89.3242 22.0815 89.3242 17.0949C89.3242 10.402 74.5901 4.98261 56.4183 4.98261C38.2452 4.98261 23.5125 10.4024 23.5125 17.0949C23.5125 22.0815 31.6987 26.3668 43.3937 28.2245L43.4008 28.2441C45.2948 15.2609 50.4089 5.95522 56.4183 5.95522ZM60.0571 71.6737C85.2945 70.3336 105.194 55.1758 105.194 36.677C105.194 30.3909 102.895 24.4909 98.8723 19.3875L98.8231 19.2891C98.5189 27.8333 86.6412 35.0588 70.1958 37.6962L70.203 37.688C70.2142 38.2484 70.22 38.8088 70.22 39.3774C70.22 54.873 65.8614 67.915 59.953 71.6942L60.0571 71.6737ZM56.4183 29.209C59.1112 29.209 61.729 29.0918 64.2337 28.8665L64.2302 28.8706C62.9836 20.5476 59.9561 14.6736 56.4183 14.6736C52.8806 14.6736 49.8535 20.5476 48.6052 28.8706L48.602 28.8665C51.1068 29.0918 53.7255 29.209 56.4183 29.209ZM56.4183 60.0306C60.9435 60.0306 64.635 50.4199 64.832 38.3655L64.8561 38.3742C62.1284 38.6318 59.3069 38.7663 56.4188 38.7663C53.528 38.7663 50.7091 38.6318 47.9814 38.3742L48.0069 38.3655C48.2008 50.4194 51.8914 60.0306 56.4183 60.0306Z" fill="currentColor" fill-opacity="0.86"/>
</svg>
