<svg width="143" height="57" viewBox="0 0 143 57" fill="none" xmlns="http://www.w3.org/2000/svg">
<g clip-path="url(#clip0_206_99)">
<path d="M12.6424 46.9328C13.7007 46.1078 14.2686 44.94 14.2686 43.5383V43.4937C14.2686 42.409 13.8707 41.4395 13.1181 40.688C12.1429 39.7106 10.6001 39.172 8.77327 39.172H0.692017V55.3818H9.08891C12.6842 55.3818 15.0999 53.4823 15.0999 50.6549C15.0999 48.9972 14.2389 47.7171 12.6424 46.9328ZM8.64798 46.0357H3.13169V41.5198H8.74725C10.6657 41.5198 11.8103 42.2962 11.8103 43.5977V43.6402C11.8103 45.8632 9.38955 46.0357 8.64798 46.0357ZM3.13169 48.3883H8.77299C10.2165 48.3883 12.6392 48.6768 12.6392 50.6127C12.6392 52.1406 11.3286 53.0281 9.13416 53.0281H3.13169V48.3883ZM25.8349 53.0278V48.3883H35.3198V46.0357H25.8349V41.5207H35.9601V39.1709H23.4V55.3801H36.0696V53.0275H35.4044L25.8349 53.0278ZM47.1231 53.0278V39.1712H44.6817V55.3804H57.4511V53.0278H56.7848H47.1231ZM77.1996 39.1712H76.8452L76.6472 39.4636L71.2203 47.4535L65.7915 39.4636L65.5929 39.1712H63.5277V55.3804H65.9303V43.925L70.6705 50.7722L71.2192 51.5656L71.7665 50.7705L76.4719 43.9349V55.3804H78.9062V39.1712H78.241H77.1996ZM118.635 39.1712H117.969V50.8707L108.874 39.4232L108.673 39.1715H106.645V55.3801H109.045V43.4063L118.345 55.1284L118.545 55.3801H120.366V39.1709H119.7L118.635 39.1712ZM133.393 39.1712H127.45V55.3804H133.393C138.367 55.3804 141.977 51.972 141.977 47.2768V47.236C141.977 42.5637 138.367 39.1712 133.393 39.1712ZM139.496 47.2771C139.496 50.6812 136.987 53.0278 133.394 53.0278H129.892V41.5209H133.394C136.987 41.5209 139.496 43.8882 139.496 47.2768V47.2771ZM93.2524 38.8799C88.59 38.8799 84.795 42.667 84.795 47.3223C84.795 51.9779 88.5888 55.765 93.2524 55.765C97.9139 55.765 101.706 51.9779 101.706 47.3226C101.706 42.667 97.9139 38.8799 93.2524 38.8799ZM93.2524 53.2696C89.9263 53.2696 87.2208 50.5703 87.2208 47.2522C87.2208 43.9309 89.9274 41.2324 93.2524 41.2324C96.5756 41.2324 99.2794 43.9318 99.2794 47.2522C99.2794 50.5712 96.5748 53.2696 93.2524 53.2696Z" fill="#000000"/>
<path d="M60.8269 16.2874C61.5357 16.5798 62.352 16.8414 63.2694 17.0725C63.5323 16.5656 63.8091 16.066 64.0996 15.5744C63.6301 15.2494 63.1702 14.9108 62.7205 14.559C61.9817 15.1513 61.349 15.7294 60.8269 16.2874ZM65.5103 18.5704C64.9246 18.477 64.3615 18.3713 63.8246 18.253C63.4174 19.1058 63.0978 19.9008 62.8715 20.6277C63.6416 20.585 64.4916 20.467 65.4113 20.2755C65.4269 19.7274 65.4608 19.1572 65.5103 18.5704ZM62.7332 13.2538C63.1893 12.9123 63.6548 12.5836 64.1292 12.2681C63.8463 11.7709 63.5775 11.2658 63.3232 10.7533C62.4046 10.9654 61.5824 11.2143 60.8705 11.492C61.3881 12.065 62.0123 12.6559 62.7332 13.2538ZM65.5977 9.29898C65.5578 8.73036 65.535 8.16068 65.5292 7.59069C64.6137 7.38366 63.7669 7.25073 62.9974 7.19219C63.2089 7.92471 63.5127 8.72512 63.903 9.5835C64.4579 9.47348 65.0258 9.37732 65.5977 9.29898ZM62.9646 24.3206C63.4621 24.7239 64.4231 24.6515 65.6395 24.1291C65.4945 23.3072 65.415 22.3693 65.402 21.3325L65.3941 21.3333V21.3265C64.3835 21.5237 63.449 21.6376 62.6031 21.6676C62.3361 22.976 62.4603 23.9079 62.9646 24.3206ZM65.9631 15.1711L65.7507 14.8628C65.663 14.9985 65.5768 15.1332 65.4877 15.272C65.6226 15.3614 65.7614 15.4496 65.8995 15.5379C65.9173 15.4197 65.9391 15.2989 65.9631 15.1711ZM64.9523 16.1465C64.7278 16.5289 64.5113 16.9159 64.3029 17.3073C64.7229 17.3947 65.1587 17.4758 65.6124 17.5494C65.6463 17.251 65.684 16.9467 65.7286 16.6361C65.4672 16.4771 65.2084 16.3139 64.9523 16.1465ZM68.7492 0.96233C68.675 0.962144 68.6011 0.970207 68.5286 0.98637C67.8931 1.12411 67.3611 1.90132 67.0087 3.18819C67.7511 3.59348 68.5326 4.11813 69.3469 4.74855L69.3477 4.74346L69.3548 4.7494C69.8364 3.82851 70.3305 3.02556 70.8292 2.35441C70.0726 1.45502 69.3418 0.96233 68.7492 0.96233ZM70.1651 5.41376C70.6025 5.78189 71.0293 6.16245 71.4449 6.55498C71.872 6.16524 72.3047 5.79134 72.7414 5.4378C72.3313 4.59215 71.9076 3.84633 71.4734 3.21195C71.0348 3.83445 70.5939 4.57405 70.1651 5.41376ZM72.1327 2.36714C72.6243 3.0513 73.104 3.86132 73.5627 4.78532L73.5695 4.78023L73.5723 4.78815C74.4007 4.16875 75.1958 3.66108 75.9404 3.27219C75.6138 1.97853 75.0948 1.19142 74.4612 1.0418C73.8237 0.888229 73.0086 1.36791 72.1327 2.36714ZM76.15 4.32318C75.4758 4.6951 74.761 5.16884 74.0132 5.74015C74.2461 6.26117 74.464 6.78877 74.6666 7.32229C75.2136 7.15847 75.7652 7.01067 76.3208 6.8791C76.3158 5.93445 76.2583 5.07974 76.15 4.32318ZM65.7784 11.2341C65.7427 10.9301 65.7103 10.6258 65.6811 10.3211C65.2362 10.3833 64.7976 10.4549 64.3614 10.5361C64.5611 10.9289 64.7715 11.3215 64.991 11.7109C65.2513 11.549 65.5138 11.3907 65.7784 11.2361V11.2341ZM65.9283 12.3385C65.7894 12.4239 65.6495 12.5102 65.5095 12.5953C65.5937 12.7362 65.68 12.8759 65.7685 13.0168C65.8409 12.9127 65.9145 12.8103 65.986 12.7105C65.9671 12.5843 65.9473 12.4604 65.9283 12.3385ZM63.5613 13.9139C63.9129 14.1843 64.2711 14.4461 64.6355 14.699C64.8015 14.4363 64.9681 14.1826 65.1361 13.9348C64.9711 13.6756 64.8085 13.4148 64.6485 13.1525C64.2743 13.4042 63.9098 13.661 63.5613 13.9139ZM66.0734 2.73001C66.3384 1.8391 66.673 1.22706 67.0274 0.806774C65.952 1.15854 64.9234 1.63997 63.9644 2.24043C64.5761 2.23251 65.2821 2.39316 66.0734 2.73001ZM63.1572 3.50439C62.6469 3.90403 62.5038 4.83481 62.7482 6.15025C63.5939 6.19494 64.5255 6.3256 65.5341 6.54281V6.53603L65.5411 6.53886C65.5739 5.49607 65.6721 4.55906 65.8302 3.74225C64.6248 3.20007 63.6654 3.10984 63.1572 3.50439ZM74.2189 26.9941C74.8524 26.8564 75.3836 26.08 75.736 24.7884C74.9964 24.3839 74.2149 23.8635 73.3987 23.2308L73.3967 23.2379L73.3888 23.2308C72.9113 24.148 72.4178 24.949 71.9164 25.6221C72.7713 26.6412 73.5814 27.133 74.2189 26.9941ZM83.4953 16.8683C84.0146 17.6127 84.2867 18.2431 84.399 18.7737C84.78 17.7419 85.0364 16.6682 85.1626 15.5755C84.8229 15.9989 84.2946 16.439 83.4953 16.868M83.5451 11.3345C84.3365 11.7785 84.8566 12.2325 85.1912 12.6618C85.1409 12.1623 85.065 11.6656 84.9638 11.1738C84.8421 10.5866 84.6819 10.008 84.4844 9.4418C84.3631 9.97126 84.0791 10.598 83.5451 11.3345ZM83.3316 19.8759C83.6184 19.2941 83.3426 18.3939 82.5541 17.3155C81.7837 17.6396 80.8831 17.9261 79.8774 18.1699L79.8822 18.1778L79.8723 18.1798C80.2923 19.1275 80.6102 20.0097 80.8206 20.8169C82.1579 20.788 83.0457 20.4557 83.3316 19.8759ZM61.7065 6.14459C61.5558 5.22257 61.5926 4.52342 61.7294 3.99227C60.9162 4.7734 60.202 5.65135 59.6026 6.60645C60.0961 6.36265 60.7724 6.18504 61.7068 6.14431M71.2591 26.429C70.6934 27.0538 70.1303 27.4908 69.585 27.7408C70.685 27.8826 71.7981 27.8916 72.9003 27.7674C72.3601 27.5066 71.8131 27.0637 71.2591 26.429ZM59.1995 16.644C58.3844 16.1881 57.8612 15.7231 57.5306 15.2819C57.5772 15.7854 57.6496 16.2882 57.7549 16.7951C57.8818 17.3982 58.0484 17.9923 58.2535 18.5735C58.3706 18.035 58.6523 17.3975 59.1995 16.644ZM71.4896 1.54948C72.0643 0.919906 72.6302 0.482653 73.1823 0.230936C72.0677 0.0842908 70.9395 0.073559 69.8223 0.198976C70.3704 0.458896 70.9284 0.906895 71.4896 1.54948ZM76.6715 25.2465C76.413 26.1176 76.0875 26.7235 75.7419 27.144C76.7924 26.7983 77.7975 26.3276 78.7356 25.742C78.1338 25.7412 77.4428 25.5746 76.6713 25.2465M70.6137 25.6122C70.1224 24.9292 69.6436 24.1172 69.1831 23.1912L69.176 23.1963L69.1721 23.1904C68.344 23.8098 67.5515 24.3166 66.8059 24.7032C67.1326 26.0008 67.6519 26.7891 68.2834 26.9395C68.915 27.0903 69.7417 26.6126 70.6137 25.6122ZM59.8549 15.8343C60.4098 15.2087 61.0951 14.5613 61.9042 13.902L61.8952 13.8961L61.8991 13.8921C61.1157 13.2277 60.4406 12.5713 59.8905 11.9281C58.7001 12.5359 58.0459 13.217 58.0408 13.8664C58.034 14.5157 58.6743 15.2067 59.8549 15.8343ZM76.2999 7.93687C75.8751 8.0418 75.4492 8.1589 75.0162 8.28588C75.1174 8.57239 75.2139 8.86483 75.3072 9.157C75.603 9.18896 75.9059 9.22261 76.2185 9.26334C76.2572 8.81025 76.2832 8.36621 76.2999 7.93687ZM59.2522 11.1074C58.7159 10.3389 58.4481 9.69041 58.3398 9.15219C57.944 10.2123 57.6802 11.317 57.5543 12.4415C57.892 12.0065 58.426 11.5514 59.2522 11.1074ZM61.799 20.6435C62.0264 19.8374 62.3619 18.957 62.8036 18.016L62.7968 18.0143L62.7988 18.0084C61.7931 17.7476 60.9005 17.4453 60.134 17.107C59.3237 18.1699 59.031 19.065 59.3079 19.653C59.585 20.2391 60.4627 20.5858 61.799 20.6435ZM72.5796 22.5656C72.1432 22.1958 71.7171 21.814 71.3018 21.4207C70.8803 21.8064 70.4476 22.1796 70.0042 22.5399C70.4151 23.3867 70.8402 24.1311 71.2729 24.7657C71.7158 24.1401 72.1536 23.4025 72.5796 22.5656ZM65.8627 25.1453C65.0745 25.4646 64.3725 25.6142 63.7669 25.6003C64.7059 26.212 65.7149 26.7086 66.7723 27.0795C66.4298 26.6502 66.1102 26.0345 65.8627 25.1453ZM61.5606 21.6546C60.6284 21.5961 59.9553 21.4037 59.4648 21.1512C60.0475 22.1147 60.7456 23.0035 61.5436 23.7979C61.4178 23.2636 61.3929 22.5656 61.5606 21.6546ZM81.0412 21.8339C81.1849 22.7294 81.1572 23.4152 81.0271 23.9418C81.8175 23.1784 82.5144 22.3237 83.1031 21.3958C82.6109 21.6269 81.9454 21.7943 81.0412 21.8339ZM59.4179 8.10035C59.13 8.68241 59.4071 9.5835 60.1945 10.6622C60.965 10.3381 61.8615 10.0524 62.8712 9.80948L62.8664 9.79873L62.8752 9.79675C62.4563 8.85098 62.1364 7.9677 61.9249 7.16164C60.5916 7.18936 59.703 7.52027 59.4179 8.10035ZM80.0174 14.7219C79.5595 15.0645 79.092 15.3942 78.6154 15.7104C78.8997 16.2067 79.1689 16.7115 79.4226 17.2241C80.3401 17.0109 81.1631 16.7642 81.8739 16.4845C81.3577 15.9135 80.7369 15.3227 80.0174 14.7219ZM82.855 16.0492C84.0466 15.4417 84.6988 14.7624 84.7036 14.1153C84.7118 13.4667 84.0701 12.7738 82.8898 12.1434C82.3298 12.7747 81.6457 13.422 80.8475 14.0723L80.8532 14.0765L80.8475 14.0822C81.6338 14.7496 82.3069 15.4078 82.855 16.0492ZM77.1498 18.6784C77.1894 19.2644 77.2115 19.8352 77.2163 20.3856C78.1397 20.592 78.9868 20.7258 79.7504 20.7832C79.5358 20.0535 79.2348 19.2526 78.8437 18.3961C78.2876 18.505 77.7208 18.6001 77.1498 18.6784ZM76.8828 2.83126C77.6671 2.51506 78.3643 2.36516 78.969 2.37704C78.0328 1.76492 77.0263 1.26771 75.9713 0.896148C76.3158 1.32435 76.6387 1.93978 76.8828 2.83126ZM66.7494 10.6812C66.8585 10.6195 66.9688 10.561 67.0772 10.5024C67.112 10.3845 67.1487 10.2657 67.1863 10.1418C67.0223 10.1576 66.8585 10.1743 66.7007 10.1933C66.7149 10.3528 66.7307 10.5149 66.7494 10.6812ZM80.9496 7.33615C80.7214 8.14108 80.3828 9.01954 79.9447 9.96023L79.9509 9.96136L79.9467 9.96928C80.9516 10.2309 81.8445 10.5332 82.6118 10.8704C83.4207 9.8075 83.7137 8.9115 83.4377 8.32548C83.1627 7.73748 82.286 7.39045 80.9496 7.33615ZM81.1869 6.32277C82.1013 6.38132 82.7685 6.56601 83.2532 6.81065C82.6789 5.86111 81.9913 4.9849 81.2056 4.20128C81.3309 4.73158 81.3498 5.42281 81.1869 6.32277ZM79.5895 24.473C80.1008 24.0736 80.2417 23.1417 79.9985 21.826C79.1604 21.7836 78.2291 21.6515 77.2115 21.4334V21.4425L77.2055 21.4414C77.1747 22.4754 77.0774 23.4124 76.9156 24.2363C78.1219 24.7785 79.0821 24.8687 79.5895 24.473ZM79.7821 3.6591C79.2843 3.2555 78.3255 3.32593 77.1111 3.84633C77.253 4.67219 77.3317 5.6092 77.3444 6.6452L77.3503 6.64322V6.65397C78.3631 6.45372 79.2996 6.33974 80.1435 6.3109C80.4114 5.00225 80.2844 4.06835 79.7821 3.6591ZM81.9186 11.688C81.2098 11.3967 80.3947 11.1359 79.4772 10.908C79.2153 11.4139 78.9388 11.9122 78.6482 12.4022C79.1184 12.727 79.5792 13.0651 80.0301 13.4161C80.761 12.8312 81.3925 12.2534 81.9186 11.688ZM76.9682 16.7413L76.9654 16.7453C77.0059 17.0635 77.0367 17.3678 77.0655 17.6574C77.5073 17.596 77.9511 17.5225 78.3821 17.4424C78.1818 17.0455 77.9715 16.6536 77.7514 16.2673C77.4928 16.4295 77.2316 16.5875 76.968 16.7413M78.1128 13.2775C77.9482 13.5352 77.7802 13.7928 77.6094 14.0457C77.7706 14.2966 77.9313 14.5542 78.097 14.8249C78.4661 14.5779 78.8299 14.3231 79.1882 14.0607C78.8357 13.7914 78.4772 13.5305 78.1128 13.2775ZM77.0189 11.3373V11.3393C77.2799 11.5008 77.5401 11.6654 77.7944 11.83C78.0257 11.4363 78.2412 11.0488 78.4426 10.671C78.0206 10.5839 77.5828 10.5035 77.132 10.4303C77.0997 10.7333 77.0619 11.0357 77.0189 11.3373ZM76.7835 12.8094C76.8543 12.9147 76.9275 13.0159 76.9971 13.1169C77.0833 12.9811 77.1747 12.8442 77.261 12.7065C77.1252 12.6171 76.988 12.528 76.8492 12.4398C76.8263 12.5676 76.8045 12.6887 76.7835 12.8094ZM66.6283 17.697C66.7873 17.7179 66.9507 17.7366 67.1139 17.7544C67.08 17.6345 67.0444 17.5157 67.0127 17.3935C66.8973 17.3293 66.7892 17.2677 66.686 17.2083C66.6645 17.3709 66.6453 17.5338 66.6283 17.697ZM76.8183 15.638C76.9541 15.5526 77.0955 15.4675 77.2332 15.382C77.147 15.2403 77.0644 15.1015 76.9781 14.9649C76.9046 15.0698 76.8311 15.1711 76.7606 15.272C76.7776 15.3931 76.7974 15.517 76.8183 15.638ZM77.2352 9.41013C77.817 9.50346 78.381 9.60811 78.9212 9.7252C79.3293 8.87389 79.648 8.07772 79.8763 7.34888C79.1058 7.39356 78.254 7.51065 77.3337 7.701C77.3191 8.27161 77.2863 8.84162 77.2352 9.41013ZM70.567 20.7069C70.3526 20.4919 70.1382 20.2707 69.9278 20.0476C69.6249 20.1556 69.3367 20.2549 69.0609 20.3471C69.2181 20.7618 69.3853 21.1727 69.5624 21.5794C69.9036 21.2959 70.2385 21.005 70.567 20.7069ZM76.1291 18.8062C75.8313 18.8402 75.5275 18.8699 75.2167 18.8956L75.2147 18.8996C75.1172 19.1872 75.0152 19.4734 74.909 19.758C75.344 19.8937 75.7688 20.0199 76.1879 20.1327C76.1792 19.6901 76.1596 19.2479 76.1291 18.8062ZM68.9238 18.9462C68.7987 18.9403 68.6737 18.9304 68.5496 18.9214C68.6022 19.0761 68.6548 19.2308 68.7065 19.3843C68.8593 19.3337 69.0131 19.2811 69.1701 19.2268C69.0898 19.1363 69.0061 19.0413 68.924 18.9462M66.5995 23.6545C67.2706 23.2834 67.9845 22.8097 68.7331 22.2387C68.4994 21.7176 68.2815 21.1896 68.0798 20.6554C67.5324 20.8194 66.9805 20.9678 66.4247 21.1006C66.4298 22.0463 66.4863 22.8988 66.5995 23.6545ZM76.1879 21.1916C75.6344 21.0486 75.0851 20.8896 74.5407 20.7148C74.3285 21.2456 74.1006 21.77 73.8574 22.2873C74.5933 22.8691 75.297 23.357 75.9665 23.7416C76.0926 22.987 76.1659 22.1323 76.1879 21.1916ZM66.5259 18.722C66.4892 19.1722 66.4614 19.6154 66.4448 20.0416C66.8755 19.9346 67.3038 19.8179 67.7294 19.6918C67.6275 19.4033 67.5306 19.113 67.4386 18.8212C67.135 18.7907 66.8318 18.7563 66.529 18.718L66.5259 18.722ZM71.6683 19.661C71.5541 19.6143 71.4378 19.5648 71.3187 19.5142C71.2076 19.5608 71.0902 19.6075 70.9703 19.655C71.0843 19.7721 71.2005 19.8898 71.3168 20.0069C71.4319 19.8937 71.5501 19.78 71.6683 19.661ZM74.1018 18.9728C73.9777 18.9798 73.8535 18.9858 73.7293 18.9907C73.645 19.084 73.5616 19.1762 73.4762 19.2664C73.6331 19.323 73.7861 19.3773 73.9389 19.4319C73.9926 19.2811 74.048 19.1275 74.1018 18.9728ZM73.5667 20.3878C73.2886 20.2886 73.0027 20.1842 72.7137 20.0753L72.7108 20.0793L72.7038 20.0773C72.4803 20.3035 72.264 20.5165 72.0524 20.7199C72.3749 21.0246 72.7043 21.322 73.0403 21.6119C73.223 21.2114 73.3995 20.803 73.5664 20.3875M69.1791 7.59182C69.4552 7.68714 69.7411 7.79207 70.0389 7.90294L70.0418 7.89813L70.0469 7.90011C70.2791 7.66621 70.4918 7.45494 70.6951 7.26092C70.3725 6.95503 70.0424 6.65712 69.7052 6.36746C69.5215 6.77194 69.3461 7.18014 69.1791 7.59182ZM72.1805 7.27251C72.3929 7.48859 72.6053 7.7058 72.816 7.92782L72.82 7.9298C73.1198 7.82374 73.4077 7.72475 73.6877 7.63142C73.5237 7.21001 73.3571 6.79679 73.1854 6.40027C72.8434 6.68283 72.5084 6.97366 72.1805 7.27251ZM73.5726 8.7517C73.656 8.84391 73.7375 8.93611 73.8215 9.03142C73.9499 9.04019 74.0741 9.04839 74.1948 9.05801C74.1425 8.90245 74.0919 8.74774 74.0373 8.59304C73.8882 8.64479 73.7324 8.69627 73.5726 8.7517ZM76.1192 10.2835C75.9546 10.2626 75.7905 10.2419 75.6327 10.2241C75.6675 10.344 75.7012 10.4639 75.736 10.5819C75.8412 10.6424 75.9495 10.7029 76.0606 10.7683C76.0804 10.6068 76.0994 10.4441 76.1192 10.2835ZM66.5587 6.78576C67.0899 6.92378 67.64 7.08217 68.2031 7.26176C68.4195 6.73033 68.6469 6.20483 68.8881 5.6932C68.1533 5.10944 67.4485 4.62156 66.7802 4.23494C66.656 4.98556 66.5808 5.83914 66.5587 6.78605M71.0783 8.31558C71.1937 8.36423 71.3108 8.41174 71.4259 8.46237C71.5391 8.4157 71.655 8.37017 71.7755 8.32237C71.6612 8.20443 71.545 8.08847 71.4299 7.97251C71.3168 8.08451 71.2016 8.19651 71.0783 8.31558ZM66.6173 9.17085C66.9154 9.13748 67.22 9.10665 67.5288 9.08092L67.5317 9.07696C67.6341 8.78253 67.7333 8.49716 67.8357 8.21942C67.4134 8.08456 66.988 7.95961 66.5599 7.84467C66.5678 8.27401 66.5867 8.71776 66.6173 9.17085ZM75.9993 17.2954C75.8861 17.3579 75.7778 17.4184 75.6684 17.4758C75.6367 17.5929 75.5999 17.714 75.5612 17.8378C75.7272 17.8209 75.8859 17.8039 76.0468 17.7852C76.0318 17.6285 76.0171 17.4639 75.9993 17.2954ZM68.8089 8.54665C68.9637 8.59957 69.1179 8.65435 69.2713 8.71098C69.1879 8.80148 69.1045 8.89142 69.021 8.98362C68.8941 8.98956 68.769 8.9955 68.6429 9.00455C68.6966 8.84984 68.7521 8.69627 68.8086 8.54637" fill="#000000"/>
</g>
<defs>
<clipPath id="clip0_206_99">
<rect width="141.414" height="56" fill="#000000" transform="translate(0.627563 0.0273438)"/>
</clipPath>
</defs>
</svg>
