<svg width="160" height="44" viewBox="0 0 160 44" fill="none" xmlns="http://www.w3.org/2000/svg">
<path d="M22.181 40.7618C19.8034 41.1781 17.3664 41.297 14.8403 41.6539L7.14289 19.1428V42.6055L0.307373 43.5273V0.527344H6.69709L15.4347 24.9119V0.527344H22.181V40.7618ZM35.3765 16.2881L44.3519 16.1691V22.8897L35.3765 22.9789V32.9706L47.2644 32.2569V38.7397L28.6599 40.1968V0.527344H47.2644V7.24795H35.3765V16.2881ZM72.2289 7.24795H65.2745V38.1449L58.5578 38.2341V7.24795H51.6035V0.527344H72.2289V7.24795ZM83.136 15.8123H92.3193V22.5329H83.136V37.7881H76.5382V0.527344H95.2913V7.24795H83.136V15.8123ZM106.228 31.9001L117.64 32.4948V39.1262L99.5115 38.2341V0.527344H106.228V31.9001ZM123.287 39.5723L129.885 40.0778V0.527344H123.287V39.5723ZM159.307 0.527344L150.778 20.9865L159.307 43.5273L151.759 42.3081L146.944 29.878L142.04 41.2971L134.818 40.4049L143.467 20.7189L135.651 0.527344H142.872L147.271 11.8275L151.967 0.527344H159.307Z" fill="#0B0E1F"/>
</svg>
