<svg width="86" height="76" viewBox="0 0 86 76" fill="none" xmlns="http://www.w3.org/2000/svg">
<mask id="mask0_206_106" style="mask-type:luminance" maskUnits="userSpaceOnUse" x="0" y="0" width="86" height="76">
<path d="M13.5438 31.4883C13.5438 34.9447 15.5149 37.6518 19.1192 37.6518C22.285 37.6518 23.9218 35.4556 23.9218 32.3757C23.9218 28.9957 22.0256 26.3091 18.4926 26.3091C15.3998 26.3091 13.5438 28.4103 13.5438 31.4883ZM44.0895 42.5326C44.0895 40.053 41.5119 38.8524 38.7151 37.5008C35.626 35.9981 32.3122 34.35 32.3122 30.5188C32.3122 25.8617 36.7276 23.8333 40.7027 23.8333C42.8382 23.8333 44.9719 24.3591 46.8114 25.4087V28.7887C45.0449 27.3606 42.9094 26.5366 40.6296 26.5366C38.4192 26.5366 36.2873 27.4352 36.2873 29.4617C36.2873 31.8649 39.0841 33.2221 42.0271 34.7229C45.1198 36.302 48.3569 38.1011 48.3569 41.5557C48.3569 46.5894 43.4282 48.3176 39.307 48.3176C36.7276 48.3176 34.4477 47.7937 32.0912 46.815V43.3585C34.5226 44.7101 37.5368 45.5342 39.4513 45.5342C41.5101 45.5379 44.0895 45.014 44.0895 42.5326ZM51.6689 41.6358V20.828C51.6689 17.448 51.4478 15.9453 50.7829 15.0411L55.8632 13.6876V33.8206L62.5602 27.4333C62.5602 27.4333 63.8846 26.2327 65.0629 24.6555H70.8775C70.5853 24.7301 69.5549 24.9575 65.874 28.4867L59.6154 34.4954C59.6154 34.4954 63.3713 39.0053 66.9061 42.9856C69.6262 45.9909 71.6886 46.8895 72.94 46.8895C73.1592 46.8895 73.4533 46.8168 73.6743 46.7404C72.571 47.57 70.9524 48.0193 69.1841 48.0193C66.9061 48.0193 64.9898 46.7404 62.6351 43.8898C58.8829 39.3073 55.8632 35.6271 55.8632 35.6271V41.6396C55.8632 45.8418 56.0842 46.5185 56.4532 47.4955H51.0076C51.4497 46.2911 51.6689 45.8381 51.6689 41.6358ZM1.98755 21.2754C0.736196 23.8314 0 27.4352 0 30.4405C0 35.0193 0.664951 39.1526 2.5776 43.5114C5.81649 50.8736 11.6312 55.0796 19.5777 55.0796C21.7863 55.0796 23.7738 54.8521 25.0252 54.4047C26.2765 53.8733 27.5279 52.8983 27.5279 51.0992C27.5279 50.2006 26.8666 49.2237 25.9075 48.8471C24.879 48.4724 23.9949 48.3997 21.2729 48.2486C18.5492 48.0958 17.5901 48.0193 15.6793 47.8702C12.6615 47.5719 11.1142 45.5416 11.1142 43.5915C11.1142 41.8614 12.2925 40.3588 14.501 39.3073C11.5563 38.1775 9.52122 35.3307 9.52122 32.111C9.52122 27.4445 13.0853 23.8352 18.8524 23.8352C20.1038 23.8352 21.5671 24.1335 22.8166 24.5082C23.8505 24.8084 24.9539 25.0321 26.1304 25.0321C27.5279 25.0321 29.1482 24.9612 30.4726 24.5846V27.5881C29.7365 27.4371 27.3817 27.2861 26.1304 27.2861C27.3068 28.6414 27.9699 30.5188 27.9699 32.3198C27.9699 36.5257 24.7311 40.053 18.9913 40.053C18.4981 40.053 17.9646 40.0269 17.3435 39.9542C16.772 40.0677 16.2361 40.3211 15.7816 40.6925C15.1569 41.2052 14.8701 41.8745 14.8701 42.4543C14.8701 43.4293 15.3852 44.1844 17.7381 44.3354L22.8166 44.6356C27.7507 44.9339 30.3996 46.966 30.3265 50.5679C30.1785 54.6992 26.9396 57.7064 19.1374 57.7064C17.0768 57.7064 14.3531 57.3298 11.9253 56.5804C10.1588 56.0565 8.46533 55.0777 6.99477 53.9516C13.6169 65.5161 25.3942 75.509 39.0111 75.509C45.6332 75.509 51.3035 73.1058 56.603 69.1273C69.2608 59.5111 85.3073 37.9501 85.3073 21.2027C85.3073 8.65762 76.3999 3.09817 65.2127 1.29536C61.1645 0.620472 57.4854 0.545898 53.4354 0.545898C36.5084 0.545898 10.378 3.55121 1.98755 21.2754Z" fill="white"/>
</mask>
<g mask="url(#mask0_206_106)">
<path d="M0 0.545898H85.3073V75.509H0V0.545898Z" fill="black" fill-opacity="0.86"/>
</g>
</svg>
