<svg width="128" height="32" viewBox="0 0 128 32" fill="none" xmlns="http://www.w3.org/2000/svg">
<g clip-path="url(#clip0_3508_13741)">
<path d="M28.4253 19.7109L0.639953 31.4128C0.259687 31.5741 -0.123461 31.1881 0.0378646 30.8078L3.77139 22.0444C3.83765 21.8888 3.98745 21.7794 4.15742 21.765L28.4253 19.7109Z" fill="#1A988B"/>
<path d="M28.9238 18.1894L13.9177 0.789341C13.6613 0.492618 13.8687 0.0288081 14.2634 0.0288081C16.1158 0.0201656 19.9962 0.00288081 21.1082 0C21.2954 0 21.4596 0.109471 21.5317 0.282319L28.9267 18.1894H28.9238Z" fill="#101328"/>
<path d="M28.1676 18.6973L7.82044 13.9555C7.541 13.8893 7.38832 13.5897 7.50355 13.3246L9.68721 8.17374C9.79668 7.91734 10.1078 7.81652 10.3469 7.96056L28.1647 18.6944" fill="#101328"/>
<path d="M34.2641 30.7833L29.6865 19.9688L29.5424 20.0955L23.7779 25.9407C23.5561 26.1654 23.6195 26.5428 23.9047 26.6781C26.29 27.8218 31.3919 30.2878 33.6389 31.3767C34.0221 31.5611 34.4283 31.1751 34.2641 30.7833Z" fill="#101328"/>
<path d="M51.3259 12.9147H43.8415C43.7436 12.9147 43.6572 12.9723 43.6197 13.0645L42.1879 16.5646C42.1505 16.6539 42.0641 16.7144 41.9661 16.7144H39.6442C39.4742 16.7144 39.359 16.5387 39.4252 16.3831L46.2902 0.146921C46.3277 0.0576161 46.4141 0 46.5092 0H48.6525C48.7475 0 48.834 0.0576161 48.8714 0.146921L55.7364 16.3803C55.8026 16.5387 55.6874 16.7116 55.5174 16.7116H53.1955C53.0976 16.7116 53.0111 16.6539 52.9737 16.5618L51.5419 13.0616C51.5045 12.9723 51.418 12.9118 51.3201 12.9118L51.3259 12.9147ZM50.1764 10.5985C50.3464 10.5985 50.4616 10.4256 50.3982 10.2701L48.3846 5.3727C48.0273 4.46525 47.6211 3.20058 47.5952 3.20058H47.5722C47.5491 3.20058 47.1429 4.46525 46.7828 5.3727L44.7691 10.2701C44.7058 10.4285 44.821 10.5985 44.991 10.5985H50.1764Z" fill="#101328"/>
<path d="M75.726 0.239107V16.4725C75.726 16.605 75.6194 16.7116 75.4869 16.7116H73.3609C73.2284 16.7116 73.1218 16.605 73.1218 16.4725V10.3363C73.1218 7.30573 73.2658 4.43932 73.2399 4.43932H73.2168C73.1938 4.43932 72.1653 6.20526 71.7361 6.96867L68.5586 12.4595C68.5154 12.5344 68.4376 12.5776 68.3512 12.5776H67.242C67.1556 12.5776 67.0778 12.5315 67.0346 12.4595L63.8571 6.96867C63.4279 6.20526 62.4253 4.43932 62.3994 4.43932H62.3764C62.3533 4.43932 62.4714 7.30285 62.4714 10.3363V16.4725C62.4714 16.605 62.3648 16.7116 62.2323 16.7116H60.1063C59.9738 16.7116 59.8672 16.605 59.8672 16.4725V0.239107C59.8672 0.10659 59.9738 0 60.1063 0H62.215C62.2986 0 62.3764 0.0432121 62.4196 0.118113L66.1473 6.39827C67.533 8.69139 67.7721 9.26467 67.7952 9.26467H67.8182C67.8413 9.26467 68.0804 8.69139 69.4401 6.39827L73.1736 0.118113C73.2168 0.0460929 73.2946 0 73.3782 0H75.4869C75.6194 0 75.726 0.10659 75.726 0.239107Z" fill="#101328"/>
<path d="M87.6335 0C91.5975 0 93.9828 2.05402 93.9828 5.46777C93.9828 8.88153 91.5947 10.9355 87.6335 10.9355H84.9832C84.8507 10.9355 84.7441 11.0421 84.7441 11.1747V16.4753C84.7441 16.6079 84.6375 16.7144 84.505 16.7144H82.3329C82.2003 16.7144 82.0938 16.6079 82.0938 16.4753V0.239107C82.0938 0.10659 82.2003 0 82.3329 0H87.6335ZM87.5846 8.45229C89.9238 8.45229 91.2374 7.32877 91.2374 5.46777C91.2374 3.60677 89.8518 2.48326 87.5846 2.48326H84.9832C84.8507 2.48326 84.7441 2.58985 84.7441 2.72236V8.21318C84.7441 8.3457 84.8507 8.45229 84.9832 8.45229H87.5846Z" fill="#101328"/>
<path d="M111.029 0.380266L104.907 8.72308C104.878 8.76341 104.861 8.81239 104.861 8.86424V16.4725C104.861 16.605 104.754 16.7116 104.622 16.7116H102.473C102.34 16.7116 102.234 16.605 102.234 16.4725V8.86424C102.234 8.81239 102.216 8.76341 102.188 8.72308L96.066 0.380266C95.9507 0.221822 96.0631 0 96.259 0H98.65C98.7249 0 98.797 0.0345697 98.8431 0.0979474L102.568 5.1336C103.02 5.72992 103.521 6.4242 103.547 6.4242H103.57C103.594 6.4242 104.095 5.73281 104.524 5.1336L108.252 0.0979474C108.298 0.0374505 108.367 0 108.445 0H110.839C111.035 0 111.147 0.221822 111.032 0.380266H111.029Z" fill="#101328"/>
<path d="M123.866 16.7116C123.783 16.7116 123.705 16.6655 123.662 16.5934L120.199 10.7195C120.032 10.7425 119.865 10.7425 119.675 10.7425H117.096C116.964 10.7425 116.857 10.8491 116.857 10.9816V16.4725C116.857 16.605 116.751 16.7116 116.618 16.7116H114.446C114.314 16.7116 114.207 16.605 114.207 16.4725V0.239107C114.207 0.10659 114.314 0 114.446 0H119.675C123.685 0 126.096 2.12603 126.096 5.4188C126.096 7.66006 124.978 9.31077 123.017 10.1376C122.881 10.1952 122.824 10.3565 122.901 10.4804L126.494 16.3457C126.592 16.5041 126.476 16.7087 126.289 16.7087H123.866V16.7116ZM119.983 8.40331C122.25 8.40331 123.351 7.06662 123.351 5.4188C123.351 3.77098 122.158 2.48326 119.983 2.48326H117.094C116.961 2.48326 116.854 2.58985 116.854 2.72236V8.16421C116.854 8.29672 116.961 8.40331 117.094 8.40331H119.983Z" fill="#101328"/>
<path d="M45.0508 24.8894C45.0134 24.9557 44.9702 25.0047 44.9298 25.0363C44.8866 25.068 44.8319 25.0824 44.7656 25.0824C44.6965 25.0824 44.6158 25.0508 44.5265 24.9874C44.4372 24.924 44.3249 24.852 44.1924 24.7713C44.057 24.6907 43.8985 24.6186 43.7113 24.5553C43.524 24.4919 43.3022 24.4602 43.04 24.4602C42.7952 24.4602 42.5791 24.4919 42.3947 24.5553C42.2104 24.6186 42.0548 24.7079 41.9309 24.8174C41.807 24.9269 41.712 25.0594 41.6486 25.2092C41.5852 25.359 41.5535 25.5203 41.5535 25.6961C41.5535 25.9208 41.6112 26.108 41.7264 26.2549C41.8416 26.4018 41.9914 26.5286 42.1787 26.6352C42.3659 26.7418 42.5762 26.8311 42.8153 26.9089C43.0516 26.9867 43.2964 27.0673 43.5442 27.1509C43.7919 27.2344 44.0368 27.3295 44.273 27.4389C44.5092 27.5484 44.7224 27.6838 44.9097 27.8509C45.0969 28.0151 45.2467 28.2196 45.362 28.4587C45.4772 28.6979 45.5348 28.9917 45.5348 29.3374C45.5348 29.7061 45.4714 30.0518 45.3447 30.3745C45.2179 30.6971 45.0336 30.9795 44.7944 31.2214C44.5553 31.4634 44.2557 31.6536 43.9043 31.789C43.5528 31.9272 43.1524 31.9964 42.7059 31.9964C42.4379 31.9964 42.1758 31.9705 41.9252 31.9186C41.6717 31.8667 41.4325 31.7918 41.2078 31.6968C40.9831 31.6017 40.7728 31.4865 40.5741 31.354C40.3753 31.2214 40.2024 31.0688 40.0469 30.9017L40.4012 30.3053C40.4358 30.2593 40.479 30.2189 40.528 30.1901C40.5769 30.1584 40.6317 30.144 40.6951 30.144C40.7757 30.144 40.8708 30.1872 40.9774 30.2737C41.084 30.3601 41.2165 30.4523 41.3749 30.556C41.5334 30.6597 41.7206 30.7548 41.9396 30.8383C42.1585 30.9218 42.4264 30.9679 42.7404 30.9679C42.9968 30.9679 43.2273 30.9334 43.4289 30.8671C43.6306 30.798 43.8006 30.7029 43.9388 30.5761C44.0771 30.4494 44.1837 30.2967 44.2557 30.1181C44.3306 29.9395 44.3652 29.7407 44.3652 29.5218C44.3652 29.2769 44.3076 29.0781 44.1952 28.9226C44.0829 28.767 43.9331 28.6374 43.7458 28.5308C43.5586 28.4271 43.3483 28.3378 43.1092 28.2629C42.8729 28.188 42.6281 28.1131 42.3803 28.0324C42.1326 27.9517 41.8877 27.8595 41.6515 27.7558C41.4153 27.6521 41.2021 27.5138 41.0148 27.3439C40.8276 27.1739 40.6778 26.9636 40.5654 26.7072C40.4531 26.4537 40.3955 26.1397 40.3955 25.7652C40.3955 25.4656 40.4531 25.1775 40.5712 24.8952C40.6893 24.6158 40.8593 24.368 41.0811 24.1519C41.3029 23.9359 41.5795 23.763 41.9079 23.6334C42.2363 23.5038 42.6079 23.4375 43.0285 23.4375C43.4981 23.4375 43.9302 23.5124 44.3249 23.6622C44.7195 23.812 45.0624 24.0281 45.3533 24.3075L45.0508 24.8952V24.8894Z" fill="#1A988B"/>
<path d="M55.058 27.7106C55.058 28.3357 54.9572 28.9119 54.7584 29.4333C54.5568 29.9576 54.2745 30.407 53.9086 30.7873C53.5427 31.1675 53.1049 31.4614 52.595 31.6717C52.0851 31.882 51.5204 31.9857 50.8982 31.9857C50.2759 31.9857 49.7142 31.882 49.2043 31.6717C48.6915 31.4614 48.2565 31.1675 47.8906 30.7873C47.5276 30.407 47.2453 29.9576 47.0408 29.4333C46.8391 28.9119 46.7383 28.3357 46.7383 27.7106C46.7383 27.0854 46.8391 26.515 47.0408 25.9907C47.2424 25.4664 47.5247 25.0141 47.8906 24.6339C48.2536 24.2536 48.6915 23.9598 49.2043 23.7466C49.7142 23.5334 50.2817 23.4297 50.8982 23.4297C51.5147 23.4297 52.0851 23.5363 52.595 23.7466C53.1049 23.9598 53.5427 24.2536 53.9086 24.6339C54.2745 25.0141 54.5568 25.4635 54.7584 25.9907C54.9601 26.5179 55.058 27.0883 55.058 27.7106ZM53.7876 27.7106C53.7876 27.2122 53.7185 26.7657 53.5831 26.3681C53.4477 25.9706 53.2547 25.6364 53.004 25.3598C52.7534 25.0833 52.4509 24.873 52.0937 24.7232C51.7394 24.5762 51.3389 24.5013 50.901 24.5013C50.4632 24.5013 50.0627 24.5762 49.7084 24.7232C49.3512 24.8701 49.0487 25.0833 48.7952 25.3598C48.5417 25.6364 48.3487 25.9734 48.2133 26.3681C48.0779 26.7657 48.0087 27.2122 48.0087 27.7106C48.0087 28.2089 48.0779 28.6612 48.2133 29.0559C48.3487 29.4506 48.5445 29.7847 48.7952 30.0613C49.0487 30.3379 49.3512 30.5482 49.7084 30.6951C50.0627 30.842 50.4603 30.914 50.901 30.914C51.3418 30.914 51.7394 30.842 52.0937 30.6951C52.4509 30.5482 52.7534 30.3379 53.004 30.0613C53.2547 29.7847 53.4477 29.4506 53.5831 29.0559C53.7185 28.6612 53.7876 28.2118 53.7876 27.7106Z" fill="#1A988B"/>
<path d="M61.5827 30.8551V31.8979H56.7891V23.5234H58.0307V30.8551H61.5827Z" fill="#1A988B"/>
<path d="M70.3342 31.8979H69.3778C69.2683 31.8979 69.179 31.872 69.1099 31.8173C69.0407 31.7625 68.9889 31.6934 68.9572 31.607L68.2168 29.6653H64.5236L63.7833 31.607C63.7573 31.6819 63.7055 31.7481 63.6306 31.8086C63.5557 31.8691 63.4664 31.8979 63.3627 31.8979H62.4062L65.7422 23.5234H66.9954L70.3314 31.8979H70.3342ZM67.8798 28.778L66.6382 25.5285C66.5489 25.3067 66.4595 25.0272 66.3702 24.6873C66.327 24.8544 66.2838 25.0099 66.2377 25.154C66.1916 25.298 66.1484 25.4277 66.1052 25.54L64.8693 28.778H67.8798Z" fill="#1A988B"/>
<path d="M77.8973 31.899H76.7882C76.5664 31.899 76.4051 31.8125 76.3043 31.6368L74.233 28.733C74.1667 28.635 74.0947 28.5659 74.0169 28.5255C73.9391 28.4852 73.821 28.465 73.6683 28.465H72.8588V31.9018H71.6172V23.5273H74.0313C74.5729 23.5273 75.0367 23.5821 75.4285 23.6944C75.8203 23.8039 76.1429 23.9623 76.3964 24.1669C76.65 24.3714 76.8401 24.6163 76.9611 24.9044C77.0821 25.1924 77.1455 25.5151 77.1455 25.8723C77.1455 26.1633 77.0994 26.437 77.0101 26.6962C76.9207 26.9555 76.7882 27.1831 76.6154 27.3876C76.4425 27.5922 76.2322 27.7679 75.9816 27.9148C75.7339 28.0617 75.4515 28.1741 75.1347 28.2519C75.2902 28.3441 75.4256 28.4766 75.538 28.6437L77.8945 31.9047L77.8973 31.899ZM73.9881 27.5605C74.3079 27.5605 74.5873 27.523 74.8322 27.4424C75.0742 27.3646 75.2787 27.2551 75.4429 27.1139C75.6071 26.9728 75.7281 26.8028 75.8116 26.6069C75.8923 26.411 75.9355 26.195 75.9355 25.9559C75.9355 25.4748 75.7771 25.1089 75.4602 24.864C75.1433 24.6192 74.668 24.4953 74.0342 24.4953H72.8617V27.5576H73.9938L73.9881 27.5605Z" fill="#1A988B"/>
<path d="M87.8142 30.8897L87.8084 31.8979H82.6172V23.5234H87.8084V24.5317H83.8646V27.1849H87.0363V28.1587H83.8646V30.8897H87.8142Z" fill="#1A988B"/>
<path d="M92.6518 30.9012C92.986 30.9012 93.2856 30.8436 93.5506 30.7312C93.8156 30.6189 94.0375 30.4604 94.2218 30.2559C94.4033 30.0513 94.5445 29.8094 94.6424 29.527C94.7404 29.2447 94.7893 28.9336 94.7893 28.5908V23.5234H96.0252V28.5908C96.0252 29.0805 95.9474 29.5328 95.7919 29.9505C95.6363 30.3682 95.4116 30.7255 95.1206 31.0308C94.8297 31.3333 94.4753 31.5724 94.0576 31.7424C93.6399 31.9123 93.1732 31.9988 92.6518 31.9988C92.1304 31.9988 91.6608 31.9123 91.246 31.7424C90.8311 31.5724 90.4768 31.3333 90.1858 31.0308C89.8949 30.7283 89.6702 30.3682 89.5146 29.9505C89.359 29.5357 89.2812 29.0805 89.2812 28.5908V23.5234H90.5229V28.585C90.5229 28.9278 90.5719 29.239 90.6669 29.5242C90.762 29.8094 90.9003 30.0513 91.0846 30.2559C91.2661 30.4604 91.4908 30.6189 91.7559 30.7312C92.0209 30.8436 92.3205 30.9012 92.6547 30.9012H92.6518Z" fill="#1A988B"/>
<path d="M104.479 31.899H103.37C103.148 31.899 102.987 31.8125 102.886 31.6368L100.815 28.733C100.749 28.635 100.677 28.5659 100.599 28.5255C100.521 28.4852 100.403 28.465 100.25 28.465H99.4408V31.9018H98.1992V23.5273H100.613C101.155 23.5273 101.619 23.5821 102.011 23.6944C102.402 23.8039 102.725 23.9623 102.978 24.1669C103.232 24.3714 103.422 24.6163 103.543 24.9044C103.664 25.1924 103.727 25.5151 103.727 25.8723C103.727 26.1633 103.681 26.437 103.592 26.6962C103.503 26.9555 103.37 27.1831 103.197 27.3876C103.025 27.5922 102.814 27.7679 102.564 27.9148C102.316 28.0617 102.034 28.1741 101.717 28.2519C101.872 28.3441 102.008 28.4766 102.12 28.6437L104.476 31.9047L104.479 31.899ZM100.57 27.5605C100.89 27.5605 101.169 27.523 101.414 27.4424C101.656 27.3646 101.861 27.2551 102.025 27.1139C102.189 26.9728 102.31 26.8028 102.394 26.6069C102.474 26.411 102.518 26.195 102.518 25.9559C102.518 25.4748 102.359 25.1089 102.042 24.864C101.725 24.6192 101.25 24.4953 100.616 24.4953H99.4437V27.5576H100.576L100.57 27.5605Z" fill="#1A988B"/>
<path d="M113.453 27.7106C113.453 28.3357 113.352 28.9119 113.153 29.4333C112.951 29.9576 112.669 30.407 112.303 30.7873C111.937 31.1675 111.499 31.4614 110.989 31.6717C110.48 31.882 109.915 31.9857 109.293 31.9857C108.67 31.9857 108.109 31.882 107.599 31.6717C107.086 31.4614 106.651 31.1675 106.285 30.7873C105.922 30.407 105.64 29.9576 105.435 29.4333C105.234 28.9119 105.133 28.3357 105.133 27.7106C105.133 27.0854 105.234 26.515 105.435 25.9907C105.637 25.4664 105.919 25.0141 106.285 24.6339C106.648 24.2536 107.086 23.9598 107.599 23.7466C108.109 23.5334 108.676 23.4297 109.293 23.4297C109.909 23.4297 110.48 23.5363 110.989 23.7466C111.499 23.9598 111.937 24.2536 112.303 24.6339C112.669 25.0141 112.951 25.4635 113.153 25.9907C113.355 26.5179 113.453 27.0883 113.453 27.7106ZM112.182 27.7106C112.182 27.2122 112.113 26.7657 111.978 26.3681C111.842 25.9706 111.649 25.6364 111.399 25.3598C111.148 25.0833 110.845 24.873 110.488 24.7232C110.134 24.5762 109.733 24.5013 109.296 24.5013C108.858 24.5013 108.457 24.5762 108.103 24.7232C107.746 24.8701 107.443 25.0833 107.19 25.3598C106.936 25.6364 106.743 25.9734 106.608 26.3681C106.472 26.7657 106.403 27.2122 106.403 27.7106C106.403 28.2089 106.472 28.6612 106.608 29.0559C106.743 29.4506 106.939 29.7847 107.19 30.0613C107.443 30.3379 107.746 30.5482 108.103 30.6951C108.457 30.842 108.855 30.914 109.296 30.914C109.736 30.914 110.134 30.842 110.488 30.6951C110.845 30.5482 111.148 30.3379 111.399 30.0613C111.649 29.7847 111.842 29.4506 111.978 29.0559C112.113 28.6612 112.182 28.2118 112.182 27.7106Z" fill="#1A988B"/>
<path d="M117.781 23.5234C118.317 23.5234 118.784 23.5868 119.181 23.7107C119.579 23.8346 119.907 24.0103 120.167 24.2379C120.426 24.4655 120.622 24.7391 120.746 25.0618C120.872 25.3844 120.936 25.7417 120.936 26.1363C120.936 26.531 120.867 26.8911 120.731 27.2195C120.596 27.5479 120.394 27.8302 120.132 28.0693C119.867 28.3056 119.538 28.4899 119.144 28.6196C118.749 28.7492 118.294 28.8155 117.781 28.8155H116.488V31.9008H115.246V23.5263H117.784L117.781 23.5234ZM117.781 27.8331C118.095 27.8331 118.375 27.7928 118.614 27.7121C118.853 27.6315 119.055 27.5162 119.213 27.3636C119.374 27.2137 119.495 27.0351 119.579 26.8277C119.659 26.6203 119.7 26.3898 119.7 26.1363C119.7 25.6264 119.541 25.226 119.224 24.935C118.908 24.6441 118.427 24.4971 117.781 24.4971H116.488V27.8331H117.781Z" fill="#1A988B"/>
<path d="M127.572 30.8897L127.566 31.8979H122.375V23.5234H127.566V24.5317H123.622V27.1849H126.794V28.1587H123.622V30.8897H127.572Z" fill="#1A988B"/>
</g>
<defs>
<clipPath id="clip0_3508_13741">
<rect width="127.574" height="32" fill="white"/>
</clipPath>
</defs>
</svg>
