<svg width="48" height="48" viewBox="0 0 48 48" fill="none" xmlns="http://www.w3.org/2000/svg">
<path d="M12.6001 40.6C13.046 41.0475 13.5759 41.4025 14.1593 41.6448C14.7428 41.8871 15.3683 42.0118 16.0001 42.0118C16.6318 42.0118 17.2573 41.8871 17.8408 41.6448C18.4242 41.4025 18.9541 41.0475 19.4001 40.6L24.0001 36L12.0001 24L7.40007 28.6C6.95258 29.0459 6.59752 29.5758 6.35526 30.1593C6.11299 30.7427 5.98828 31.3683 5.98828 32C5.98828 32.6317 6.11299 33.2573 6.35526 33.8407C6.59752 34.4242 6.95258 34.9541 7.40007 35.4L12.6001 40.6Z" stroke="#FFBFA6" stroke-width="3" stroke-linecap="round" stroke-linejoin="round"/>
<path d="M4 44L10 38" stroke="#FFBFA6" stroke-width="3" stroke-linecap="round" stroke-linejoin="round"/>
<path d="M15 27L20 22" stroke="#FFBFA6" stroke-width="3" stroke-linecap="round" stroke-linejoin="round"/>
<path d="M21 33L26 28" stroke="#FFBFA6" stroke-width="3" stroke-linecap="round" stroke-linejoin="round"/>
<path d="M36 6L28 14H40L32 22" stroke="#FFBFA6" stroke-width="3" stroke-linecap="round" stroke-linejoin="round"/>
</svg>
