<svg width="1440" height="93" viewBox="0 0 1440 93" fill="none" xmlns="http://www.w3.org/2000/svg">
<mask id="mask0_2259_13646" style="mask-type:alpha" maskUnits="userSpaceOnUse" x="-5" y="0" width="1450" height="93">
<rect x="-5" width="1450" height="93" fill="#D9D9D9"/>
</mask>
<g mask="url(#mask0_2259_13646)">
<mask id="mask1_2259_13646" style="mask-type:luminance" maskUnits="userSpaceOnUse" x="-5" y="0" width="1450" height="93">
<path d="M1441.05 48.6569L1435.11 1.20546L1439.06 0.707337L1445 48.1588L1441.05 48.6569ZM1430.93 49.9022L1425.1 2.44081L1421.14 2.92898L1426.97 50.3904L1430.93 49.9022ZM1416.84 51.6157L1411.13 4.13444L1407.18 4.61264L1412.89 52.0939L1416.84 51.6157ZM1402.75 53.2894L1397.15 5.79818L1393.19 6.26642L1398.79 53.7577L1402.75 53.2894ZM1388.64 54.9333L1383.16 7.43203L1379.21 7.89031L1384.69 55.3915L1388.64 54.9333ZM1374.53 56.5372L1369.17 9.01607L1365.22 9.46438L1370.57 56.9855L1374.53 56.5372ZM1360.4 58.1113L1355.16 10.5802L1351.19 11.0185L1356.44 58.5496L1360.4 58.1113ZM1346.27 59.6455L1341.14 12.1044L1337.18 12.5328L1342.31 60.0739L1346.27 59.6455ZM1332.13 61.1499L1327.11 13.5889L1323.14 14.0073L1328.16 61.5683L1332.13 61.1499ZM1317.96 62.6243L1313.06 15.0533L1309.1 15.4618L1314 63.0328L1317.96 62.6243ZM1303.8 64.0589L1299.02 16.478L1295.05 16.8765L1299.83 64.4574L1303.8 64.0589ZM1289.61 65.4636L1284.94 17.8727L1280.98 18.2613L1285.65 65.8522L1289.61 65.4636ZM1275.43 66.8285L1270.88 19.2276L1266.91 19.6062L1271.47 67.2071L1275.43 66.8285ZM1261.23 68.1635L1256.79 20.5527L1252.83 20.9213L1257.26 68.5321L1261.23 68.1635ZM1247.02 69.4586L1242.7 21.8378L1238.74 22.1965L1243.06 69.8172L1247.02 69.4586ZM1232.8 70.7238L1228.6 23.0931L1224.63 23.4418L1228.83 71.0725L1232.8 70.7238ZM1218.56 71.9492L1214.47 24.3085L1210.51 24.6472L1214.6 72.2879L1218.56 71.9492ZM1204.33 73.1447L1200.36 25.4941L1196.38 25.8228L1200.36 73.4735L1204.33 73.1447ZM1190.09 74.3103L1186.23 26.6497L1182.26 26.9685L1186.11 74.6291L1190.09 74.3103ZM1175.83 75.4361L1172.09 27.7655L1168.11 28.0743L1171.86 75.7449L1175.83 75.4361ZM1161.56 76.532L1157.93 28.8514L1153.96 29.1503L1157.59 76.8308L1161.56 76.532ZM1147.29 77.588L1143.78 29.8975L1139.81 30.1864L1143.31 77.8769L1147.29 77.588ZM1133 78.6141L1129.61 30.9137L1125.63 31.1926L1129.03 78.8931L1133 78.6141ZM1118.71 79.6004L1115.43 31.89L1111.46 32.159L1114.74 79.8694L1118.71 79.6004ZM1104.41 80.5568L1101.25 32.8464L1097.27 33.1054L1100.43 80.8158L1104.41 80.5568ZM1090.09 81.4734L1087.04 33.753L1083.07 34.002L1086.12 81.7224L1090.09 81.4734ZM1075.77 82.36L1072.84 34.6297L1068.87 34.8688L1071.79 82.5991L1075.77 82.36ZM1061.44 83.2069L1058.63 35.4665L1054.65 35.6957L1057.46 83.436L1061.44 83.2069ZM1047.09 84.0238L1044.39 36.2834L1040.42 36.5126L1043.12 84.2529L1047.09 84.0238ZM1032.74 84.8008L1030.16 37.0506L1026.19 37.2697L1028.76 85.02L1032.74 84.8008ZM1018.38 85.548L1015.92 37.7878L1011.94 37.997L1014.4 85.7573L1018.38 85.548ZM1004 86.2554L1001.65 38.4951L997.668 38.6944L1000.02 86.4546L1004 86.2554ZM989.62 86.9328L987.388 39.1626L983.404 39.3519L985.635 87.1221L989.62 86.9328ZM975.226 87.5704L973.115 39.8002L969.13 39.9795L971.242 87.7498L975.226 87.5704ZM960.823 88.1682L958.821 40.388L954.837 40.5574L956.839 88.3375L960.823 88.1682ZM946.42 88.736L944.538 40.9559L940.553 41.1153L942.436 88.8954L946.42 88.736ZM932.007 89.2641L930.244 41.4739L926.26 41.6233L928.023 89.4135L932.007 89.2641ZM917.584 89.7622L915.931 41.972L911.946 42.1115L913.6 89.9017L917.584 89.7622ZM903.151 90.2205L901.617 42.4203L897.633 42.5499L899.167 90.35L903.151 90.2205ZM888.708 90.6488L887.294 42.8487L883.31 42.9683L884.724 90.7684L888.708 90.6488ZM874.255 91.0374L872.961 43.2373L868.976 43.3469L870.271 91.147L874.255 91.0374ZM859.793 91.396L858.607 43.586L854.623 43.6856L855.808 91.4957L859.793 91.396ZM845.32 91.7148L844.254 43.9048L840.27 43.9944L841.336 91.8045L845.32 91.7148ZM830.837 92.0038L829.891 44.1937L825.906 44.2734L826.853 92.0834L830.837 92.0038ZM816.344 92.2528L815.508 44.4427L811.523 44.5125L812.36 92.3225L816.344 92.2528ZM801.852 92.462L801.134 44.642L797.15 44.7018L797.867 92.5218L801.852 92.462ZM787.349 92.6413L786.751 44.8213L782.767 44.8711L783.365 92.6912L787.349 92.6413ZM772.836 92.7808L772.348 44.9608L768.364 45.0006L768.852 92.8207L772.836 92.7808ZM758.314 92.8904L757.945 45.0704L753.961 45.1003L754.329 92.9203L758.314 92.8904ZM743.781 92.9601L743.532 45.1401L739.548 45.16L739.797 92.9801L743.781 92.9601ZM729.239 92.99L729.109 45.17H725.125L725.254 93H729.239V92.99ZM714.776 92.99V45.17H710.781V92.99H714.776ZM700.442 45.1302H696.458L696.348 92.9402H700.333L700.442 45.1302ZM686.119 45.0505L682.135 45.0305L681.906 92.8506L685.89 92.8705L686.119 45.0505ZM671.795 44.9409L667.811 44.911L667.463 92.731L671.447 92.7609L671.795 44.9409ZM657.472 44.7914L653.488 44.7516L653.02 92.5716L657.004 92.6115L657.472 44.7914ZM643.139 44.6021L639.154 44.5523L638.567 92.3724L642.551 92.4222L643.139 44.6021ZM628.805 44.383L624.821 44.3232L624.114 92.1333L628.098 92.193L628.805 44.383ZM614.472 44.1239L610.488 44.0542L609.661 91.8643L613.645 91.934L614.472 44.1239ZM600.139 43.835L596.154 43.7553L595.208 91.5654L599.192 91.6451L600.139 43.835ZM585.805 43.5063L581.821 43.4166L580.765 91.2267L584.75 91.3163L585.805 43.5063ZM571.472 43.1377L567.488 43.038L566.312 90.8481L570.297 90.9477L571.472 43.1377ZM557.139 42.7392L553.154 42.6296L551.859 90.4297L555.844 90.5393L557.139 42.7392ZM542.805 42.3008L538.821 42.1813L537.407 89.9813L541.391 90.1009L542.805 42.3008ZM528.472 41.8326L524.488 41.7031L522.964 89.4932L526.948 89.6227L528.472 41.8326ZM514.138 41.3245L510.154 41.185L508.511 88.9751L512.495 89.1146L514.138 41.3245ZM499.815 40.7865L495.831 40.6371L494.078 88.4272L498.062 88.5766L499.815 40.7865ZM485.492 40.2087L481.507 40.0493L479.635 87.8295L483.619 87.9888L485.492 40.2087ZM471.168 39.591L467.184 39.4216L465.192 87.2018L469.176 87.3712L471.168 39.591ZM456.855 38.9434L452.871 38.7641L450.769 86.5343L454.753 86.7136L456.855 38.9434ZM442.541 38.266L438.557 38.0767L436.336 85.8469L440.32 86.0362L442.541 38.266ZM428.238 37.5487L424.254 37.3494L421.923 85.1097L425.907 85.3089L428.238 37.5487ZM413.934 36.8015L409.96 36.5923L407.51 84.3525L411.484 84.5618L413.934 36.8015ZM399.641 36.0145L395.667 35.8052L393.107 83.5555L397.081 83.7648L399.641 36.0145ZM385.357 35.1975L381.383 34.9784L378.704 82.7187L382.678 82.9379L385.357 35.1975ZM371.084 34.3408L367.109 34.1116L364.321 81.852L368.295 82.0811L371.084 34.3408ZM356.82 33.4541L352.846 33.215L349.937 80.9454L353.912 81.1845L356.82 33.4541ZM342.567 32.5276L338.592 32.2785L335.574 79.9989L339.548 80.248L342.567 32.5276ZM328.323 31.5712L324.349 31.3122L321.221 79.0326L325.195 79.2916L328.323 31.5712ZM314.089 30.5849L310.115 30.3159L306.868 78.0263L310.842 78.2953L314.089 30.5849ZM299.865 29.5588L295.891 29.2798L292.534 76.9803L296.509 77.2592L299.865 29.5588ZM285.651 28.5027L281.677 28.2138L278.201 75.9043L282.175 76.1932L285.651 28.5027ZM271.448 27.4168L267.473 27.1179L263.887 74.7985L267.862 75.0974L271.448 27.4168ZM257.264 26.2911L253.289 25.9822L249.594 73.6628L253.568 73.9716L257.264 26.2911ZM243.09 25.1354L239.115 24.8166L235.3 72.4872L239.275 72.806L243.09 25.1354ZM228.926 23.9399L224.951 23.6111L221.027 71.2718L225.001 71.6005L228.926 23.9399ZM214.781 22.7145L210.807 22.3758L206.773 70.0265L210.747 70.3652L214.781 22.7145ZM200.647 21.4592L196.683 21.1105L192.529 68.7513L196.494 69.0999L200.647 21.4592ZM186.533 20.1741L182.569 19.8154L178.306 67.4462L182.27 67.8048L186.533 20.1741ZM172.429 18.8491L168.465 18.4804L164.092 66.1012L168.056 66.4698L172.429 18.8491ZM158.345 17.4942L154.38 17.1156L149.888 64.7264L153.852 65.105L158.345 17.4942ZM144.28 16.1094L140.316 15.7308L135.714 63.3316L139.678 63.7102L144.28 16.1094ZM130.236 14.6947L126.271 14.3062L121.55 61.8971L125.514 62.2856L130.236 14.6947ZM116.211 13.2402L112.247 12.8417L107.416 60.4126L111.38 60.8111L116.211 13.2402ZM102.206 11.7558L98.242 11.3473L93.3015 58.9083L97.2659 59.3168L102.206 11.7558ZM88.2216 10.2415L84.2573 9.82303L79.1973 57.3741L83.1616 57.7925L88.2216 10.2415ZM74.2568 8.69727L70.2925 8.26888L65.1229 55.81L69.0872 56.2383L74.2568 8.69727ZM60.3119 7.11323L56.3575 6.67488L51.0684 54.206L55.0228 54.6443L60.3119 7.11323ZM46.3869 5.4993L42.4326 5.05099L37.0339 52.5622L40.9883 53.0105L46.3869 5.4993ZM32.4819 3.85549L28.5275 3.39721L23.0193 50.8984L26.9736 51.3567L32.4819 3.85549ZM18.6067 2.18179L14.6523 1.71355L9.02458 49.2048L12.979 49.6731L18.6067 2.18179ZM4.75146 0.4782L0.797091 0L-5 47.4514L-1.04563 47.9296L4.6917 0.458274L4.75146 0.4782Z" fill="white"/>
</mask>
<g mask="url(#mask1_2259_13646)">
<path d="M1445 -13.4688H-5V106.45H1445V-13.4688Z" fill="url(#paint0_linear_2259_13646)"/>
</g>
</g>
<defs>
<linearGradient id="paint0_linear_2259_13646" x1="-5" y1="46.4856" x2="1445" y2="46.4856" gradientUnits="userSpaceOnUse">
<stop stop-color="#07F3B7"/>
<stop offset="1" stop-color="#F3FFDE"/>
</linearGradient>
</defs>
</svg>
